<?xml version="1.0" encoding="UTF-8"?>
<svg xmlns="http://www.w3.org/2000/svg" xmlns:xlink="http://www.w3.org/1999/xlink" width="80px" height="80px" viewBox="0 0 80 70" version="1.1">
<g id="surface1">
<path style=" stroke:none;fill-rule:evenodd;fill:rgb(0%,0%,0%);fill-opacity:1;" d="M -0.0234375 -0.0234375 C 26.644531 -0.0234375 53.3125 -0.0234375 79.976562 -0.0234375 C 79.976562 23.3125 79.976562 46.644531 79.976562 69.976562 C 53.3125 69.976562 26.644531 69.976562 -0.0234375 69.976562 C -0.0234375 46.644531 -0.0234375 23.3125 -0.0234375 -0.0234375 Z M -0.0234375 -0.0234375 "/>
<path style=" stroke:none;fill-rule:evenodd;fill:rgb(99.607843%,99.607843%,99.607843%);fill-opacity:1;" d="M 9.890625 9.890625 C 9.949219 9.882812 10.007812 9.890625 10.066406 9.910156 C 18.425781 18.253906 26.765625 26.609375 35.089844 34.976562 C 26.765625 43.347656 18.425781 51.703125 10.066406 60.042969 C 10.007812 60.066406 9.949219 60.074219 9.890625 60.066406 C 9.882812 56.675781 9.890625 53.28125 9.910156 49.890625 C 14.882812 44.917969 19.851562 39.949219 24.820312 34.976562 C 19.851562 30.007812 14.882812 25.035156 9.910156 20.066406 C 9.890625 16.675781 9.882812 13.28125 9.890625 9.890625 Z M 9.890625 9.890625 "/>
<path style=" stroke:none;fill-rule:evenodd;fill:rgb(99.607843%,99.607843%,99.607843%);fill-opacity:1;" d="M 27.398438 9.890625 C 27.445312 9.882812 27.492188 9.890625 27.535156 9.910156 C 35.890625 18.253906 44.230469 26.609375 52.554688 34.976562 C 44.222656 43.371094 35.859375 51.734375 27.464844 60.066406 C 27.433594 60.058594 27.402344 60.046875 27.378906 60.023438 C 27.347656 56.660156 27.347656 53.296875 27.378906 49.933594 C 32.363281 44.949219 37.347656 39.964844 42.332031 34.976562 C 37.347656 29.992188 32.363281 25.007812 27.378906 20.023438 C 27.339844 16.640625 27.347656 13.261719 27.398438 9.890625 Z M 27.398438 9.890625 "/>
<path style=" stroke:none;fill-rule:evenodd;fill:rgb(99.607843%,99.607843%,99.607843%);fill-opacity:1;" d="M 44.910156 9.890625 C 44.957031 9.882812 45.003906 9.890625 45.042969 9.910156 C 53.402344 18.253906 61.742188 26.609375 70.066406 34.976562 C 61.734375 43.371094 53.371094 51.734375 44.976562 60.066406 C 44.945312 60.058594 44.914062 60.046875 44.890625 60.023438 C 44.859375 56.660156 44.859375 53.296875 44.890625 49.933594 C 49.875 44.949219 54.859375 39.964844 59.84375 34.976562 C 54.859375 29.992188 49.875 25.007812 44.890625 20.023438 C 44.851562 16.640625 44.859375 13.261719 44.910156 9.890625 Z M 44.910156 9.890625 "/>
</g>
</svg>
