<?xml version="1.0" encoding="UTF-8"?>
<svg xmlns="http://www.w3.org/2000/svg" xmlns:xlink="http://www.w3.org/1999/xlink" width="1000px" height="1000px" viewBox="0 0 1000 1000" version="1.1">
  <g id="surface1">
    <path style=" stroke:none;fill-rule:evenodd;fill:rgb(0%,0%,0%);fill-opacity:1;" d="M -0.292969 62.207031 C 333.054688 62.207031 666.40625 62.207031 999.707031 62.207031 C 999.707031 353.90625 999.707031 645.554688 999.707031 937.207031 C 666.40625 937.207031 333.054688 937.207031 -0.292969 937.207031 C -0.292969 645.554688 -0.292969 353.90625 -0.292969 62.207031 Z M -0.292969 62.207031 "/>
    <path style=" stroke:none;fill-rule:evenodd;fill:rgb(99.607843%,99.607843%,99.607843%);fill-opacity:1;" d="M 123.632812 186.132812 C 124.367188 186.035156 125.097656 186.132812 125.828125 186.375 C 230.320312 290.671875 334.570312 395.117188 438.625 499.707031 C 334.570312 604.34375 230.320312 708.789062 125.828125 813.039062 C 125.097656 813.328125 124.367188 813.429688 123.632812 813.328125 C 123.535156 770.945312 123.632812 728.515625 123.875 686.132812 C 186.035156 623.976562 248.144531 561.867188 310.253906 499.707031 C 248.144531 437.597656 186.035156 375.4375 123.875 313.328125 C 123.632812 270.945312 123.535156 228.515625 123.632812 186.132812 Z M 123.632812 186.132812 "/>
    <path style=" stroke:none;fill-rule:evenodd;fill:rgb(99.607843%,99.607843%,99.607843%);fill-opacity:1;" d="M 342.480469 186.132812 C 343.066406 186.035156 343.652344 186.132812 344.1875 186.375 C 448.632812 290.671875 552.882812 395.117188 656.933594 499.707031 C 552.78125 604.640625 448.242188 709.179688 343.3125 813.328125 C 342.921875 813.234375 342.53125 813.085938 342.234375 812.792969 C 341.84375 770.75 341.84375 728.710938 342.234375 686.671875 C 404.539062 624.367188 466.84375 562.0625 529.148438 499.707031 C 466.84375 437.402344 404.539062 375.097656 342.234375 312.792969 C 341.75 270.507812 341.84375 228.273438 342.480469 186.132812 Z M 342.480469 186.132812 "/>
    <path style=" stroke:none;fill-rule:evenodd;fill:rgb(99.607843%,99.607843%,99.607843%);fill-opacity:1;" d="M 561.375 186.132812 C 561.960938 186.035156 562.546875 186.132812 563.039062 186.375 C 667.53125 290.671875 771.777344 395.117188 875.828125 499.707031 C 771.679688 604.640625 667.140625 709.179688 562.207031 813.328125 C 561.816406 813.234375 561.425781 813.085938 561.132812 812.792969 C 560.742188 770.75 560.742188 728.710938 561.132812 686.671875 C 623.4375 624.367188 685.742188 562.0625 748.046875 499.707031 C 685.742188 437.402344 623.4375 375.097656 561.132812 312.792969 C 560.644531 270.507812 560.742188 228.273438 561.375 186.132812 Z M 561.375 186.132812 "/>
  </g>
</svg>
