<svg width="81" height="80" viewBox="0 0 81 80" fill="none" xmlns="http://www.w3.org/2000/svg">
    <path d="M43.589 11.9006C43.0656 12.424 43.0307 13.0172 43.5192 13.6278C44.2345 14.5524 45.4208 14.029 45.4208 12.8078C45.4208 11.5866 44.3915 11.0807 43.589 11.9006Z" fill="currentColor"/>
    <path d="M34.709 15.0583C34.0286 15.7387 34.2205 16.9076 35.0753 17.2391C36.1046 17.6229 37.0293 15.9655 36.2442 15.1107C35.8778 14.7094 35.0753 14.6745 34.709 15.0583Z" fill="currentColor"/>
    <path d="M43.5366 16.6285C43.1528 16.8902 43.1528 16.9251 43.1528 21.9844C43.1528 27.6369 43.1179 27.8637 42.1061 27.8637C41.1465 27.8637 41.0593 27.5846 41.0593 24.6187C41.0593 21.9495 41.0593 21.9146 40.6057 21.4785C40.2742 21.1295 40.0649 21.0598 39.6985 21.147C38.7739 21.3738 38.7913 21.2342 38.7913 27.0786V32.5218L39.7683 32.0158C40.5883 31.6146 40.9895 31.5273 42.0363 31.5273C44.4962 31.5273 46.328 32.9754 46.9211 35.4003C47.1828 36.4297 47.1828 36.6216 46.9211 37.6334C46.4501 39.4478 45.1242 40.8609 43.4319 41.3145C42.3154 41.6111 40.7104 41.4367 39.6811 40.9133L38.7913 40.4422V42.9719C38.7913 45.4318 38.7739 45.519 38.3552 45.9203C38.1284 46.1645 37.8143 46.3564 37.6573 46.3564C37.5003 46.3564 37.1863 46.1645 36.9595 45.9203L36.5233 45.5016V19.7164L36.0872 19.5245C35.6161 19.3152 35.2149 19.3849 34.7439 19.8036C34.4996 19.9956 34.4298 20.3445 34.4298 21.1819V22.281H30.3998L30.0858 23.0137C29.7717 23.7813 27.0676 33.3592 26.3698 36.1505C26.0732 37.3892 26.0034 38.2266 26.0034 40.1631C26.0034 43.0068 26.3349 44.5246 27.434 46.7926C29.0041 50.055 31.2198 52.1659 35.2323 54.1722C37.4131 55.2713 37.9016 55.6726 38.5122 56.9112C39.1577 58.2371 39.4368 59.6677 39.6811 62.9824C39.8555 65.3027 39.8381 65.7912 39.6462 65.9657C39.5066 66.0878 37.8318 66.681 35.9127 67.2741C33.9937 67.8847 32.3886 68.4081 32.3538 68.443C32.3189 68.4779 36 68.5128 40.5534 68.4954C45.4382 68.4954 48.6483 68.4256 48.3866 68.3383C48.1424 68.2511 46.4327 67.6928 44.5659 67.1171L41.1814 66.0355L41.2861 63.5581C41.4082 60.6621 41.6176 59.2315 42.1409 57.7312C42.7341 56.0389 43.3622 55.4458 45.8744 54.1722C50.5848 51.7996 53.2715 48.9733 54.4927 45.048C55.051 43.3034 55.1556 40.0933 54.7544 37.5462C54.1961 33.9349 51.1082 22.909 50.5325 22.5078C50.3406 22.3508 49.4857 22.281 47.8283 22.281H45.4208V19.6641C45.4208 17.274 45.3859 17.0123 45.0719 16.6983C44.6532 16.2796 44.0774 16.2447 43.5366 16.6285Z" fill="currentColor"/>
    <path d="M39.0879 16.8378C38.6866 17.274 38.7041 18.3207 39.1053 18.6697C39.4368 18.9837 40.1347 19.0535 40.4661 18.8267C40.8151 18.5999 41.0942 17.8846 40.9895 17.4833C40.7627 16.5587 39.6636 16.1923 39.0879 16.8378Z" fill="currentColor"/>
    <path d="M40.7104 34.1791C39.7508 34.8421 39.4019 35.4527 39.4019 36.4994C39.4019 37.9824 40.3789 39.0291 41.8793 39.1512C43.4668 39.2734 44.7229 38.0696 44.7229 36.4122C44.7229 34.3885 42.3328 33.08 40.7104 34.1791Z" fill="currentColor"/>
</svg>
