<?xml version="1.0" encoding="UTF-8"?>
<!DOCTYPE svg PUBLIC "-//W3C//DTD SVG 1.1//EN" "http://www.w3.org/Graphics/SVG/1.1/DTD/svg11.dtd">
<svg xmlns="http://www.w3.org/2000/svg" version="1.1" width="640px" height="360px" style="shape-rendering:geometricPrecision; text-rendering:geometricPrecision; image-rendering:optimizeQuality; fill-rule:evenodd; clip-rule:evenodd" xmlns:xlink="http://www.w3.org/1999/xlink">
<g><path style="opacity:0.997" fill="#079a2d" d="M 340.5,14.5 C 340.973,15.9063 341.973,16.573 343.5,16.5C 349.795,19.3139 355.795,22.6473 361.5,26.5C 361.973,27.9063 362.973,28.573 364.5,28.5C 374.031,33.3358 383.364,38.6691 392.5,44.5C 392.973,45.9063 393.973,46.573 395.5,46.5C 401.79,49.3119 407.79,52.6452 413.5,56.5C 413.973,57.9063 414.973,58.573 416.5,58.5C 431.238,66.7084 445.905,75.2084 460.5,84C 466.536,89.2229 470.702,95.7229 473,103.5C 474.143,128.961 474.643,154.461 474.5,180C 474.333,203.833 474.167,227.667 474,251.5C 473.809,253.708 473.309,255.708 472.5,257.5C 471.326,258.514 470.66,259.847 470.5,261.5C 470.737,262.791 470.404,263.791 469.5,264.5C 468.094,264.973 467.427,265.973 467.5,267.5C 464.043,272.791 459.71,277.291 454.5,281C 437.571,290.794 420.571,300.294 403.5,309.5C 401.973,309.427 400.973,310.094 400.5,311.5C 380.162,323.335 359.829,335.169 339.5,347C 324.656,352.476 310.323,351.476 296.5,344C 272.741,330.128 249.075,316.295 225.5,302.5C 225.027,301.094 224.027,300.427 222.5,300.5C 215.72,297.221 209.053,293.721 202.5,290C 194.854,285.031 187.187,280.031 179.5,275C 172.153,268.137 168.153,259.637 167.5,249.5C 167.191,201.814 167.524,154.147 168.5,106.5C 169.837,97.3334 174.17,89.8334 181.5,84C 200.93,71.9566 220.597,60.4566 240.5,49.5C 242.027,49.573 243.027,48.9063 243.5,47.5C 263.289,35.6918 283.289,24.3584 303.5,13.5C 305.553,13.5979 307.22,12.9313 308.5,11.5C 319.569,8.40703 330.236,9.40703 340.5,14.5 Z"/></g>
<g><path style="opacity:0.176" fill="#a2dab1" d="M 308.5,11.5 C 307.22,12.9313 305.553,13.5979 303.5,13.5C 304.78,12.0687 306.447,11.4021 308.5,11.5 Z"/></g>
<g><path style="opacity:0.043" fill="#adddb8" d="M 340.5,14.5 C 342.027,14.427 343.027,15.0937 343.5,16.5C 341.973,16.573 340.973,15.9063 340.5,14.5 Z"/></g>
<g><path style="opacity:0.008" fill="#a7dab3" d="M 361.5,26.5 C 363.027,26.427 364.027,27.0937 364.5,28.5C 362.973,28.573 361.973,27.9063 361.5,26.5 Z"/></g>
<g><path style="opacity:0.051" fill="#b0dfbc" d="M 392.5,44.5 C 394.027,44.427 395.027,45.0937 395.5,46.5C 393.973,46.573 392.973,45.9063 392.5,44.5 Z"/></g>
<g><path style="opacity:0.282" fill="#a2d9b1" d="M 243.5,47.5 C 243.027,48.9063 242.027,49.573 240.5,49.5C 240.973,48.0937 241.973,47.427 243.5,47.5 Z"/></g>
<g><path style="opacity:0.016" fill="#b2e0be" d="M 413.5,56.5 C 415.027,56.427 416.027,57.0937 416.5,58.5C 414.973,58.573 413.973,57.9063 413.5,56.5 Z"/></g>
<g><path style="opacity:1" fill="#f7fbf8" d="M 259.5,93.5 C 300.168,93.3333 340.835,93.5 381.5,94C 394.059,96.8924 402.559,104.392 407,116.5C 407.667,158.5 407.667,200.5 407,242.5C 403.833,255 396,262.833 383.5,266C 341.167,266.667 298.833,266.667 256.5,266C 243.939,261.441 236.439,252.608 234,239.5C 233.333,199.5 233.333,159.5 234,119.5C 237.348,105.653 245.848,96.9861 259.5,93.5 Z"/></g>
<g><path style="opacity:1" fill="#51b96d" d="M 247.5,110.5 C 256.986,109.506 266.652,109.173 276.5,109.5C 276.768,111.099 276.434,112.432 275.5,113.5C 275.5,112.5 275.5,111.5 275.5,110.5C 266.167,110.5 256.833,110.5 247.5,110.5 Z"/></g>
<g><path style="opacity:1" fill="#54ba70" d="M 313.5,110.5 C 302.5,110.5 291.5,110.5 280.5,110.5C 280.5,111.5 280.5,112.5 280.5,113.5C 279.566,112.432 279.232,111.099 279.5,109.5C 291.012,109.172 302.346,109.505 313.5,110.5 Z"/></g>
<g><path style="opacity:1" fill="#58bb72" d="M 370.5,110.5 C 378.316,109.508 386.316,109.174 394.5,109.5C 394.768,111.099 394.434,112.432 393.5,113.5C 393.5,112.5 393.5,111.5 393.5,110.5C 385.833,110.5 378.167,110.5 370.5,110.5 Z"/></g>
<g><path style="opacity:1" fill="#029a2c" d="M 247.5,110.5 C 256.833,110.5 266.167,110.5 275.5,110.5C 275.5,111.5 275.5,112.5 275.5,113.5C 266.167,113.5 256.833,113.5 247.5,113.5C 247.5,112.5 247.5,111.5 247.5,110.5 Z"/></g>
<g><path style="opacity:1" fill="#059a2d" d="M 313.5,110.5 C 315.842,110.504 317.842,111.337 319.5,113C 306.504,113.5 293.504,113.667 280.5,113.5C 280.5,112.5 280.5,111.5 280.5,110.5C 291.5,110.5 302.5,110.5 313.5,110.5 Z"/></g>
<g><path style="opacity:1" fill="#1fa03a" d="M 328.5,109.5 C 336.174,109.334 343.841,109.5 351.5,110C 352.337,111.011 352.67,112.178 352.5,113.5C 344.5,113.5 336.5,113.5 328.5,113.5C 328.5,112.167 328.5,110.833 328.5,109.5 Z"/></g>
<g><path style="opacity:1" fill="#009a2b" d="M 370.5,110.5 C 378.167,110.5 385.833,110.5 393.5,110.5C 393.5,111.5 393.5,112.5 393.5,113.5C 385.833,113.5 378.167,113.5 370.5,113.5C 370.5,112.5 370.5,111.5 370.5,110.5 Z"/></g>
<g><path style="opacity:0.124" fill="#b2e0bf" d="M 168.5,106.5 C 167.524,154.147 167.191,201.814 167.5,249.5C 166.335,203.335 166.168,157.002 167,110.5C 167.21,108.942 167.71,107.609 168.5,106.5 Z"/></g>
<g><path style="opacity:1" fill="#46b462" d="M 367.5,120.5 C 376.192,120.831 384.859,120.498 393.5,119.5C 384.774,118.198 376.108,118.198 367.5,119.5C 376.105,117.529 385.105,116.862 394.5,117.5C 394.5,118.833 394.5,120.167 394.5,121.5C 385.318,121.827 376.318,121.493 367.5,120.5 Z"/></g>
<g><path style="opacity:1" fill="#009a2b" d="M 367.5,120.5 C 367.5,120.167 367.5,119.833 367.5,119.5C 376.108,118.198 384.774,118.198 393.5,119.5C 384.859,120.498 376.192,120.831 367.5,120.5 Z"/></g>
<g><path style="opacity:1" fill="#2da94b" d="M 247.5,117.5 C 257.167,117.5 266.833,117.5 276.5,117.5C 276.5,118.833 276.5,120.167 276.5,121.5C 266.833,121.5 257.167,121.5 247.5,121.5C 247.5,120.167 247.5,118.833 247.5,117.5 Z"/></g>
<g><path style="opacity:1" fill="#3cb05b" d="M 324.5,118.5 C 325.404,119.209 325.737,120.209 325.5,121.5C 310.167,121.5 294.833,121.5 279.5,121.5C 279.5,120.167 279.5,118.833 279.5,117.5C 294.676,117.171 309.676,117.504 324.5,118.5 Z"/></g>
<g><path style="opacity:1" fill="#009a2b" d="M 324.5,118.5 C 317.532,119.831 310.198,120.497 302.5,120.5C 295.167,120.167 287.833,119.833 280.5,119.5C 295.152,118.501 309.818,118.167 324.5,118.5 Z"/></g>
<g><path style="opacity:1" fill="#2da84b" d="M 328.5,117.5 C 337.173,117.334 345.84,117.5 354.5,118C 355.337,119.011 355.67,120.178 355.5,121.5C 346.5,121.5 337.5,121.5 328.5,121.5C 328.5,120.167 328.5,118.833 328.5,117.5 Z"/></g>
<g><path style="opacity:1" fill="#24a23d" d="M 255.5,125.5 C 259.833,125.5 264.167,125.5 268.5,125.5C 268.5,126.833 268.5,128.167 268.5,129.5C 264.167,129.5 259.833,129.5 255.5,129.5C 255.5,128.167 255.5,126.833 255.5,125.5 Z"/></g>
<g><path style="opacity:1" fill="#189f37" d="M 288.5,125.5 C 292.5,125.5 296.5,125.5 300.5,125.5C 300.5,126.833 300.5,128.167 300.5,129.5C 296.5,129.5 292.5,129.5 288.5,129.5C 288.5,128.167 288.5,126.833 288.5,125.5 Z"/></g>
<g><path style="opacity:1" fill="#1ea03a" d="M 312.5,125.5 C 316.833,125.5 321.167,125.5 325.5,125.5C 325.5,126.833 325.5,128.167 325.5,129.5C 321.167,129.5 316.833,129.5 312.5,129.5C 312.5,128.167 312.5,126.833 312.5,125.5 Z"/></g>
<g><path style="opacity:1" fill="#1ea03a" d="M 336.5,125.5 C 343.508,125.334 350.508,125.5 357.5,126C 358.337,127.011 358.67,128.178 358.5,129.5C 351.167,129.5 343.833,129.5 336.5,129.5C 336.5,128.167 336.5,126.833 336.5,125.5 Z"/></g>
<g><path style="opacity:1" fill="#1ea03a" d="M 364.5,125.5 C 371.833,125.5 379.167,125.5 386.5,125.5C 386.5,126.833 386.5,128.167 386.5,129.5C 379.167,129.5 371.833,129.5 364.5,129.5C 364.5,128.167 364.5,126.833 364.5,125.5 Z"/></g>
<g><path style="opacity:1" fill="#afdfbd" d="M 288.5,133.5 C 300.007,132.176 311.673,132.176 323.5,133.5C 323.376,134.107 323.043,134.44 322.5,134.5C 311.346,133.505 300.012,133.172 288.5,133.5 Z"/></g>
<g><path style="opacity:1" fill="#0e9d32" d="M 288.5,133.5 C 300.012,133.172 311.346,133.505 322.5,134.5C 322.167,135.5 321.5,136.167 320.5,136.5C 309.833,136.5 299.167,136.5 288.5,136.5C 288.5,135.5 288.5,134.5 288.5,133.5 Z"/></g>
<g><path style="opacity:1" fill="#099c31" d="M 360.5,134.5 C 353.24,136.465 345.573,137.132 337.5,136.5C 337.5,135.5 337.5,134.5 337.5,133.5C 345.352,133.175 353.018,133.508 360.5,134.5 Z"/></g>
<g><path style="opacity:1" fill="#0c9d32" d="M 385.5,133.5 C 385.5,134.5 385.5,135.5 385.5,136.5C 377.427,137.132 369.76,136.465 362.5,134.5C 369.982,133.508 377.648,133.175 385.5,133.5 Z"/></g>
<g><path style="opacity:1" fill="#7fcb92" d="M 267.5,133.5 C 268.434,134.568 268.768,135.901 268.5,137.5C 264.167,137.5 259.833,137.5 255.5,137.5C 255.5,135.833 255.5,134.167 255.5,132.5C 259.702,132.183 263.702,132.517 267.5,133.5 Z"/></g>
<g><path style="opacity:1" fill="#079c30" d="M 267.5,133.5 C 267.5,134.5 267.5,135.5 267.5,136.5C 263.833,136.5 260.167,136.5 256.5,136.5C 256.5,135.5 256.5,134.5 256.5,133.5C 260.167,133.5 263.833,133.5 267.5,133.5 Z"/></g>
<g><path style="opacity:1" fill="#6ac381" d="M 288.5,133.5 C 288.5,134.5 288.5,135.5 288.5,136.5C 299.167,136.5 309.833,136.5 320.5,136.5C 309.679,137.495 298.679,137.828 287.5,137.5C 287.232,135.901 287.566,134.568 288.5,133.5 Z"/></g>
<g><path style="opacity:1" fill="#66c27e" d="M 385.5,133.5 C 386.434,134.568 386.768,135.901 386.5,137.5C 369.991,137.83 353.658,137.496 337.5,136.5C 345.573,137.132 353.24,136.465 360.5,134.5C 361.167,134.5 361.833,134.5 362.5,134.5C 369.76,136.465 377.427,137.132 385.5,136.5C 385.5,135.5 385.5,134.5 385.5,133.5 Z"/></g>
<g><path style="opacity:1" fill="#9dd7ad" d="M 370.5,143.5 C 367.913,142.184 364.913,141.517 361.5,141.5C 358.087,141.517 355.087,142.184 352.5,143.5C 351.596,142.791 351.263,141.791 351.5,140.5C 358.167,140.5 364.833,140.5 371.5,140.5C 371.737,141.791 371.404,142.791 370.5,143.5 Z"/></g>
<g><path style="opacity:1" fill="#3aa84b" d="M 255.5,141.5 C 259.833,141.5 264.167,141.5 268.5,141.5C 268.67,142.822 268.337,143.989 267.5,145C 263.514,145.499 259.514,145.666 255.5,145.5C 255.5,144.167 255.5,142.833 255.5,141.5 Z"/></g>
<g><path style="opacity:1" fill="#019a2b" d="M 322.5,143.5 C 311.346,144.495 300.012,144.828 288.5,144.5C 288.5,143.5 288.5,142.5 288.5,141.5C 299.172,141.333 309.839,141.5 320.5,142C 321.044,142.717 321.711,143.217 322.5,143.5 Z"/></g>
<g><path style="opacity:1" fill="#31a544" d="M 370.5,143.5 C 370.389,144.117 370.056,144.617 369.5,145C 366.667,145.167 363.833,145.333 361,145.5C 357.748,145.481 354.915,144.814 352.5,143.5C 355.087,142.184 358.087,141.517 361.5,141.5C 364.913,141.517 367.913,142.184 370.5,143.5 Z"/></g>
<g><path style="opacity:1" fill="#32a545" d="M 373.5,141.5 C 377.5,141.5 381.5,141.5 385.5,141.5C 385.5,142.833 385.5,144.167 385.5,145.5C 381.5,145.5 377.5,145.5 373.5,145.5C 373.5,144.167 373.5,142.833 373.5,141.5 Z"/></g>
<g><path style="opacity:1" fill="#82cd97" d="M 322.5,143.5 C 323.043,143.56 323.376,143.893 323.5,144.5C 311.673,145.824 300.007,145.824 288.5,144.5C 300.012,144.828 311.346,144.495 322.5,143.5 Z"/></g>
<g><path style="opacity:1" fill="#87ce9a" d="M 336.5,140.5 C 340.833,140.5 345.167,140.5 349.5,140.5C 349.5,142.167 349.5,143.833 349.5,145.5C 345.167,145.5 340.833,145.5 336.5,145.5C 336.5,143.833 336.5,142.167 336.5,140.5 Z"/></g>
<g><path style="opacity:1" fill="#009a2a" d="M 337.5,141.5 C 341.167,141.5 344.833,141.5 348.5,141.5C 348.5,142.5 348.5,143.5 348.5,144.5C 344.833,144.5 341.167,144.5 337.5,144.5C 337.5,143.5 337.5,142.5 337.5,141.5 Z"/></g>
<g><path style="opacity:1" fill="#84cd97" d="M 267.5,152.5 C 263.702,153.483 259.702,153.817 255.5,153.5C 255.5,151.833 255.5,150.167 255.5,148.5C 259.833,148.5 264.167,148.5 268.5,148.5C 268.768,150.099 268.434,151.432 267.5,152.5 Z"/></g>
<g><path style="opacity:1" fill="#7dcb92" d="M 300.5,149.5 C 296.5,149.5 292.5,149.5 288.5,149.5C 288.5,150.5 288.5,151.5 288.5,152.5C 287.566,151.432 287.232,150.099 287.5,148.5C 292.032,148.182 296.366,148.515 300.5,149.5 Z"/></g>
<g><path style="opacity:1" fill="#84cd97" d="M 336.5,148.5 C 340.833,148.5 345.167,148.5 349.5,148.5C 349.5,150.167 349.5,151.833 349.5,153.5C 345.167,153.5 340.833,153.5 336.5,153.5C 336.5,151.833 336.5,150.167 336.5,148.5 Z"/></g>
<g><path style="opacity:1" fill="#72c78a" d="M 354.5,149.5 C 358.97,148.514 363.637,148.181 368.5,148.5C 368.737,149.791 368.404,150.791 367.5,151.5C 363.627,149.57 359.294,148.903 354.5,149.5 Z"/></g>
<g><path style="opacity:1" fill="#7ccb91" d="M 373.5,149.5 C 377.634,148.515 381.968,148.182 386.5,148.5C 386.768,150.099 386.434,151.432 385.5,152.5C 385.5,151.5 385.5,150.5 385.5,149.5C 381.5,149.5 377.5,149.5 373.5,149.5 Z"/></g>
<g><path style="opacity:1" fill="#009a2b" d="M 267.5,152.5 C 263.833,152.5 260.167,152.5 256.5,152.5C 256.5,151.5 256.5,150.5 256.5,149.5C 260.167,149.5 263.833,149.5 267.5,149.5C 267.5,150.5 267.5,151.5 267.5,152.5 Z"/></g>
<g><path style="opacity:1" fill="#049b2d" d="M 300.5,149.5 C 300.5,150.5 300.5,151.5 300.5,152.5C 296.5,152.5 292.5,152.5 288.5,152.5C 288.5,151.5 288.5,150.5 288.5,149.5C 292.5,149.5 296.5,149.5 300.5,149.5 Z"/></g>
<g><path style="opacity:1" fill="#1ba039" d="M 312.5,148.5 C 316.833,148.5 321.167,148.5 325.5,148.5C 325.5,149.833 325.5,151.167 325.5,152.5C 321.167,152.5 316.833,152.5 312.5,152.5C 312.5,151.167 312.5,149.833 312.5,148.5 Z"/></g>
<g><path style="opacity:1" fill="#009a2a" d="M 337.5,149.5 C 341.167,149.5 344.833,149.5 348.5,149.5C 348.5,150.5 348.5,151.5 348.5,152.5C 344.833,152.5 341.167,152.5 337.5,152.5C 337.5,151.5 337.5,150.5 337.5,149.5 Z"/></g>
<g><path style="opacity:1" fill="#059b2d" d="M 354.5,149.5 C 359.294,148.903 363.627,149.57 367.5,151.5C 363.649,152.809 359.649,152.809 355.5,151.5C 355.137,150.817 354.804,150.15 354.5,149.5 Z"/></g>
<g><path style="opacity:1" fill="#089b2f" d="M 373.5,149.5 C 377.5,149.5 381.5,149.5 385.5,149.5C 385.5,150.5 385.5,151.5 385.5,152.5C 381.5,152.5 377.5,152.5 373.5,152.5C 373.5,151.5 373.5,150.5 373.5,149.5 Z"/></g>
<g><path style="opacity:1" fill="#5cbe77" d="M 247.5,157.5 C 256.986,156.506 266.652,156.173 276.5,156.5C 276.768,158.099 276.434,159.432 275.5,160.5C 275.5,159.5 275.5,158.5 275.5,157.5C 266.167,157.5 256.833,157.5 247.5,157.5 Z"/></g>
<g><path style="opacity:1" fill="#61c07b" d="M 349.5,157.5 C 342.833,157.5 336.167,157.5 329.5,157.5C 329.5,158.5 329.5,159.5 329.5,160.5C 328.566,159.432 328.232,158.099 328.5,156.5C 335.687,156.175 342.687,156.509 349.5,157.5 Z"/></g>
<g><path style="opacity:1" fill="#62c07c" d="M 373.5,157.5 C 380.313,156.509 387.313,156.175 394.5,156.5C 394.768,158.099 394.434,159.432 393.5,160.5C 393.5,159.5 393.5,158.5 393.5,157.5C 386.833,157.5 380.167,157.5 373.5,157.5 Z"/></g>
<g><path style="opacity:1" fill="#009a2b" d="M 324.5,158.5 C 324.5,158.833 324.5,159.167 324.5,159.5C 309.818,159.833 295.152,159.499 280.5,158.5C 295.328,157.174 309.995,157.174 324.5,158.5 Z"/></g>
<g><path style="opacity:1" fill="#079c30" d="M 349.5,157.5 C 349.5,158.5 349.5,159.5 349.5,160.5C 342.833,160.5 336.167,160.5 329.5,160.5C 329.5,159.5 329.5,158.5 329.5,157.5C 336.167,157.5 342.833,157.5 349.5,157.5 Z"/></g>
<g><path style="opacity:1" fill="#29a443" d="M 357.5,156.5 C 360.247,156.187 362.914,156.52 365.5,157.5C 363.869,160.375 361.536,161.042 358.5,159.5C 357.873,158.583 357.539,157.583 357.5,156.5 Z"/></g>
<g><path style="opacity:1" fill="#079c2f" d="M 373.5,157.5 C 380.167,157.5 386.833,157.5 393.5,157.5C 393.5,158.5 393.5,159.5 393.5,160.5C 386.833,160.5 380.167,160.5 373.5,160.5C 373.5,159.5 373.5,158.5 373.5,157.5 Z"/></g>
<g><path style="opacity:1" fill="#0d9e34" d="M 247.5,157.5 C 256.833,157.5 266.167,157.5 275.5,157.5C 275.5,158.5 275.5,159.5 275.5,160.5C 266.167,160.5 256.833,160.5 247.5,160.5C 247.5,159.5 247.5,158.5 247.5,157.5 Z"/></g>
<g><path style="opacity:1" fill="#43b360" d="M 324.5,158.5 C 309.995,157.174 295.328,157.174 280.5,158.5C 295.152,159.499 309.818,159.833 324.5,159.5C 309.676,160.496 294.676,160.829 279.5,160.5C 279.5,159.167 279.5,157.833 279.5,156.5C 294.848,156.167 310.181,156.501 325.5,157.5C 325.376,158.107 325.043,158.44 324.5,158.5 Z"/></g>
<g><path style="opacity:1" fill="#029a2c" d="M 275.5,164.5 C 275.5,165.5 275.5,166.5 275.5,167.5C 266.167,167.5 256.833,167.5 247.5,167.5C 247.5,166.5 247.5,165.5 247.5,164.5C 256.833,164.5 266.167,164.5 275.5,164.5 Z"/></g>
<g><path style="opacity:1" fill="#069b2d" d="M 280.5,164.5 C 293.504,164.333 306.504,164.5 319.5,165C 317.842,166.663 315.842,167.496 313.5,167.5C 302.5,167.5 291.5,167.5 280.5,167.5C 280.5,166.5 280.5,165.5 280.5,164.5 Z"/></g>
<g><path style="opacity:1" fill="#22a13c" d="M 328.5,164.5 C 335.5,164.5 342.5,164.5 349.5,164.5C 349.5,165.833 349.5,167.167 349.5,168.5C 342.5,168.5 335.5,168.5 328.5,168.5C 328.5,167.167 328.5,165.833 328.5,164.5 Z"/></g>
<g><path style="opacity:1" fill="#3bab51" d="M 360.5,164.5 C 362.465,164.948 362.798,165.948 361.5,167.5C 360.614,166.675 360.281,165.675 360.5,164.5 Z"/></g>
<g><path style="opacity:1" fill="#009a2b" d="M 393.5,164.5 C 393.5,165.5 393.5,166.5 393.5,167.5C 386.833,167.5 380.167,167.5 373.5,167.5C 373.5,166.5 373.5,165.5 373.5,164.5C 380.167,164.5 386.833,164.5 393.5,164.5 Z"/></g>
<g><path style="opacity:1" fill="#51b96d" d="M 275.5,164.5 C 276.434,165.568 276.768,166.901 276.5,168.5C 266.652,168.827 256.986,168.494 247.5,167.5C 256.833,167.5 266.167,167.5 275.5,167.5C 275.5,166.5 275.5,165.5 275.5,164.5 Z"/></g>
<g><path style="opacity:1" fill="#54ba70" d="M 280.5,164.5 C 280.5,165.5 280.5,166.5 280.5,167.5C 291.5,167.5 302.5,167.5 313.5,167.5C 302.346,168.495 291.012,168.828 279.5,168.5C 279.232,166.901 279.566,165.568 280.5,164.5 Z"/></g>
<g><path style="opacity:1" fill="#56bb71" d="M 393.5,164.5 C 394.434,165.568 394.768,166.901 394.5,168.5C 387.313,168.825 380.313,168.491 373.5,167.5C 380.167,167.5 386.833,167.5 393.5,167.5C 393.5,166.5 393.5,165.5 393.5,164.5 Z"/></g>
<g><path style="opacity:1" fill="#049a2c" d="M 241.5,180.5 C 294.5,180.5 347.5,180.5 400.5,180.5C 400.667,200.169 400.5,219.836 400,239.5C 398.239,250.196 392.072,256.696 381.5,259C 340.167,259.667 298.833,259.667 257.5,259C 249.48,255.649 244.313,249.816 242,241.5C 241.5,221.169 241.333,200.836 241.5,180.5 Z"/></g>
<g><path style="opacity:1" fill="#f8fcf9" d="M 351.5,225.5 C 350.957,225.56 350.624,225.893 350.5,226.5C 353.428,227.484 356.428,227.817 359.5,227.5C 359.5,229.5 359.5,231.5 359.5,233.5C 352.416,234.126 345.75,233.459 339.5,231.5C 343.405,224.693 347.572,218.027 352,211.5C 352.769,208.901 352.602,206.401 351.5,204C 348.738,202.923 347.072,203.756 346.5,206.5C 345.566,207.568 345.232,208.901 345.5,210.5C 343.5,210.5 341.5,210.5 339.5,210.5C 339.32,199.527 344.654,195.36 355.5,198C 360.155,200.897 361.655,205.063 360,210.5C 357.675,215.82 354.842,220.82 351.5,225.5 Z"/></g>
<g><path style="opacity:1" fill="#b1dfbd" d="M 291.5,198.5 C 288.167,198.5 284.833,198.5 281.5,198.5C 281.5,210.167 281.5,221.833 281.5,233.5C 285.5,233.5 289.5,233.5 293.5,233.5C 289.366,234.485 285.032,234.818 280.5,234.5C 280.5,222.167 280.5,209.833 280.5,197.5C 284.371,197.185 288.038,197.518 291.5,198.5 Z"/></g>
<g><path style="opacity:1" fill="#f9fcfa" d="M 291.5,198.5 C 301.105,200.022 305.772,205.688 305.5,215.5C 306.381,224.969 302.381,230.969 293.5,233.5C 289.5,233.5 285.5,233.5 281.5,233.5C 281.5,221.833 281.5,210.167 281.5,198.5C 284.833,198.5 288.167,198.5 291.5,198.5 Z"/></g>
<g><path style="opacity:1" fill="#c8e9d0" d="M 325.5,198.5 C 321.167,198.5 316.833,198.5 312.5,198.5C 312.5,210.167 312.5,221.833 312.5,233.5C 317.5,233.5 322.5,233.5 327.5,233.5C 322.36,234.488 317.026,234.821 311.5,234.5C 311.5,222.167 311.5,209.833 311.5,197.5C 316.363,197.181 321.03,197.514 325.5,198.5 Z"/></g>
<g><path style="opacity:1" fill="#f8fcf9" d="M 325.5,198.5 C 332.579,199.974 335.079,204.308 333,211.5C 331.954,213.09 330.787,214.59 329.5,216C 335.228,220.76 335.895,226.093 331.5,232C 330.255,232.791 328.922,233.291 327.5,233.5C 322.5,233.5 317.5,233.5 312.5,233.5C 312.5,221.833 312.5,210.167 312.5,198.5C 316.833,198.5 321.167,198.5 325.5,198.5 Z"/></g>
<g><path style="opacity:1" fill="#28a441" d="M 319.5,203.5 C 325.758,204.477 327.091,207.644 323.5,213C 322.207,213.49 320.873,213.657 319.5,213.5C 319.5,210.167 319.5,206.833 319.5,203.5 Z"/></g>
<g><path style="opacity:1" fill="#20a03b" d="M 288.5,204.5 C 294.722,205.398 297.722,209.065 297.5,215.5C 298.7,222.92 295.7,226.92 288.5,227.5C 288.5,219.833 288.5,212.167 288.5,204.5 Z"/></g>
<g><path style="opacity:1" fill="#8dd19f" d="M 346.5,206.5 C 346.5,208.167 346.5,209.833 346.5,211.5C 343.941,211.802 341.607,211.468 339.5,210.5C 341.5,210.5 343.5,210.5 345.5,210.5C 345.232,208.901 345.566,207.568 346.5,206.5 Z"/></g>
<g><path style="opacity:1" fill="#1da03a" d="M 319.5,219.5 C 323.57,218.508 325.57,220.008 325.5,224C 325.57,227.992 323.57,229.492 319.5,228.5C 319.5,225.5 319.5,222.5 319.5,219.5 Z"/></g>
<g><path style="opacity:1" fill="#8ad09d" d="M 351.5,225.5 C 354.167,226.167 356.833,226.833 359.5,227.5C 356.428,227.817 353.428,227.484 350.5,226.5C 350.624,225.893 350.957,225.56 351.5,225.5 Z"/></g>
<g><path style="opacity:1" fill="#8dd1a0" d="M 339.5,231.5 C 345.75,233.459 352.416,234.126 359.5,233.5C 352.687,234.491 345.687,234.825 338.5,234.5C 338.263,233.209 338.596,232.209 339.5,231.5 Z"/></g>
<g><path style="opacity:0.09" fill="#9bd6a9" d="M 472.5,257.5 C 472.771,259.38 472.104,260.713 470.5,261.5C 470.66,259.847 471.326,258.514 472.5,257.5 Z"/></g>
<g><path style="opacity:0.016" fill="#a2d8af" d="M 469.5,264.5 C 469.573,266.027 468.906,267.027 467.5,267.5C 467.427,265.973 468.094,264.973 469.5,264.5 Z"/></g>
<g><path style="opacity:0.345" fill="#98d4a9" d="M 222.5,300.5 C 224.027,300.427 225.027,301.094 225.5,302.5C 223.973,302.573 222.973,301.906 222.5,300.5 Z"/></g>
<g><path style="opacity:0.012" fill="#bce4c5" d="M 403.5,309.5 C 403.027,310.906 402.027,311.573 400.5,311.5C 400.973,310.094 401.973,309.427 403.5,309.5 Z"/></g>
</svg>
