<?xml version="1.0" encoding="UTF-8"?>
<svg version="1.1" viewBox="0 0 1778.2 487.66" xmlns="http://www.w3.org/2000/svg">
 <g>
  <path d="m389.64 374.53c11.042 26.719 43.594 95.833 107.5 95.833 44.114 0 72.604-26.094 72.604-74.323 0-58.698-47.083-77.292-78.438-93.542-22.656-11.615-95.833-38.333-95.833-105.16 0-56.354 42.396-106.3 117.92-106.3 33.125 0 52.292 9.2708 69.687 13.333 2.3438 20.365 5.8334 43.594 10.469 79.01l-8.698 1.7708c-12.76-35.417-30.208-80.156-84.219-80.156-44.74 0-65.104 30.208-65.104 66.771 0 43.021 33.125 63.906 77.292 84.271 42.969 19.167 98.75 44.115 98.75 113.28 0 65.052-54.635 115.57-127.81 116.77-20.938-1.1979-40.677-5.2604-54.636-9.8958-14.479-4.6355-24.375-9.323-30.781-12.188-5.2082-15.104-11.614-56.354-17.396-87.135l8.698-2.3438" fill="#00617f"/>
  <path d="m738.49 411.3c0 49.219 3.6458 54.688 47.396 59.688v6.3542h-129.84v-6.3542c41.875-5 45.521-10.469 45.521-59.688v-51.51c0-7.2916-1.8229-12.76-11.823-29.583-10.938-18.698-27.812-50.156-56.042-100.26-19.167-33.698-21.406-37.344-47.865-42.344v-6.4062h108.02v6.4062l-21.458 4.5313c-10.885 2.2917-12.76 5.4687-5.8854 22.344 4.1146 10 44.635 83.333 65.625 117.97 16.823-31.406 45.99-86.562 57.396-114.79 7.2917-17.76 3.6458-23.698-13.229-26.875l-19.115-3.1771v-6.4062h97.5v6.4062c-29.635 5-33.281 12.292-52.864 42.344-16.875 25.99-33.281 57.396-54.219 96.615-8.6457 15.938-9.1145 20.938-9.1145 28.229v56.51" fill="#00617f"/>
  <path d="m961.3 181.2c30.521 0 51.51 5.4688 66.51 15.938 15.521 10.937 23.698 27.344 23.698 50.104 0 40.104-37.813 59.74-60.156 65.156v0.9375c41.927 5.9375 79.323 30.521 79.323 76.562 0 32.344-15.99 55.104-42.396 70.156-22.76 12.76-51.927 17.292-87.031 17.292h-101.61v-6.3542c38.281-5 41.927-10.469 41.927-59.688v-164.06c-0.416-49.167-3.1771-54.635-39.167-59.635v-6.4062zm-44.167 130.78h28.698c43.75 0 65.625-20.052 65.625-59.688 0-27.344-11.406-61.979-65.208-61.979-15 0-21.406 0.4688-25.052 2.2917-2.7082 1.3542-4.0624 3.1771-4.0624 12.292zm0 9.1146v101.61c0 35.99 5.8854 44.635 39.167 44.635 38.75 0 71.094-21.406 71.094-71.562 0-50.573-36.042-74.688-83.854-74.688h-26.406" fill="#00617f"/>
  <path d="m1047.8 477.34v-6.3542c29.635-7.2916 35.104-10.469 52.396-54.688l93.437-240.1 5.9375-1.8229 33.698 87.031c22.344 57.396 42.344 115.26 60.573 161.72 14.583 37.396 20.521 41.042 48.802 47.865v6.3542h-108.91v-6.3542l15-4.1146c16.406-4.1145 17.812-8.6458 13.698-22.76-3.177-10.938-16.406-46.51-29.635-81.562h-97.5c-5.4688 14.115-16.875 49.635-21.406 67.865-6.8229 27.344-2.7604 32.812 21.875 38.281l9.5833 2.2916v6.3542zm92.083-128.49h87.917l-43.75-116.15h-0.885l-43.281 116.15" fill="#00617f"/>
  <path d="m1334 396.72c8.6978 20.938 34.219 75.156 84.323 75.156 34.635 0 56.927-20.469 56.927-58.333 0-45.99-36.875-60.573-61.511-73.333-17.76-9.1146-75.156-30.052-75.156-82.448 0-44.219 33.229-83.385 92.5-83.385 25.938 0 40.99 7.2917 54.635 10.469 1.8751 15.937 4.5834 34.167 8.2292 61.979l-6.8229 1.3542c-10.052-27.812-23.698-62.865-66.094-62.865-35.052 0-50.99 23.698-50.99 52.396 0 33.698 25.937 50.104 60.573 66.042 33.698 15.052 77.448 34.635 77.448 88.854 0 51.042-42.812 90.677-100.21 91.615-16.406-0.937-31.927-4.1146-42.865-7.7604-11.406-3.6459-19.114-7.2917-24.114-9.5834-4.1145-11.823-9.1145-44.167-13.698-68.333l6.823-1.8229" fill="#00617f"/>
  <path d="m1549.5 247.24c0-49.167-3.6459-54.635-40.104-59.635v-6.4062h197.76c0.416 7.7604 2.7083 40.99 5 66.51l-6.8229 1.3542c-6.4063-22.76-14.167-34.583-20.521-41.875-6.8229-7.7604-20.521-15.99-55.156-15.99h-30.052c-12.76 0-13.646 0.9375-13.646 13.698v111.15h45.99c39.219 0 40.573-4.5312 49.688-38.229h6.8229v90.208h-6.8229c-4.5833-17.344-7.2916-26.875-13.698-31.927-6.3541-5.4688-16.406-6.3542-35.99-6.3542h-45.99v87.5c0 25.938 2.7084 36.875 10.469 42.812 9.5834 7.2917 25.938 7.2917 47.396 7.2917 25.938 0 47.344-7.2917 57.396-18.229 7.7606-8.2291 15.938-23.698 26.406-44.635l6.8751 1.3542c-2.2918 12.76-12.344 59.219-15.99 71.51h-213.65v-6.3542c40.99-5 44.636-10.469 44.636-59.688v-164.06" fill="#00617f"/>
  <path d="m1778.2 203.8c0 11.615-9.7396 21.25-21.563 21.25-11.823 0-21.51-9.6354-21.51-21.25 0-11.823 9.6875-21.354 21.51-21.354 11.823 0 21.563 9.5312 21.563 21.354zm-39.219 0c0 10.208 7.8646 18.438 17.656 18.438 9.7918 0 17.656-8.2292 17.656-18.438 0-10.312-7.8645-18.594-17.656-18.594-9.7916 0-17.656 8.2813-17.656 18.594zm18.229-11.823c3.8541 0 8.2812 1.0937 8.2812 6.1458 0 2.8646-2.1875 5.1042-5.052 6.0417 0.625 1.0937 2.0312 3.5938 3.1249 5.2604 1.1987 1.7188 2.0313 2.8646 2.7604 3.8021 0.781 0.8855 1.5104 1.25 1.9792 1.6146l0.26 0.104-0.107 0.8333-1.8229-0.104c-3.0729-0.052-4.7396-0.8855-6.3021-3.3333-1.0934-1.7188-2.8646-5.0521-3.2291-5.7812-0.573-0.9375-1.0413-1.4063-1.7709-1.4063h-1.6667v5.5208c0 2.8646 0.208 3.3333 3.2292 3.8021v1.1459h-10.625v-1.1459c2.9686-0.4688 3.177-0.9375 3.177-3.8021v-13.854c0-2.9167-0.208-3.3854-3.177-3.75v-1.0937zm-3.5418 11.875h2.2396c1.1987 0 2.2396-0.3645 2.6563-0.6249 1.9792-1.3021 2.2396-3.5938 2.2396-4.5312 0-4.2708-2.8645-5.4688-4.7916-5.4688-2.3439 0-2.3439 0.104-2.3439 1.875v8.75" fill="#00617f"/>
  <path d="m582.55 178.49s2.5 6.8229 3.2291 9.4792l5.5729 0.4167-8.802-9.8958" fill="#00617f"/>
  <path d="m0 0h145.42c-72.188 14.844-130.57 76.146-145.42 147.34v-147.34" fill="#261951"/>
  <path d="m301.67 0v79.115c-10.886-37.604-42.5-68.229-80.104-79.115h80.104" fill="#261951"/>
  <path d="m192.86 108.39v-94.531c49.479 0.9896 93.021 45.052 93.958 94.531h-93.958" fill="#261951"/>
  <path d="m192.86 116.72h11.875c-4.9479 2.9688-8.9063 6.9271-11.875 11.823v-11.823" fill="#261951"/>
  <path d="m192.86 183.96h11.875c-4.9479-2.9687-8.9063-6.9271-11.875-11.875v11.875" fill="#261951"/>
  <path d="m231.51 116.72h55.312c-3.9584 27.656-26.614 51.406-55.312 53.385v-53.385" fill="#261951"/>
  <path d="m222.4 129.58v40.521c-9.1147 0-17.656-9.7917-17.656-18.958 0-17.76 17.656-21.562 17.656-21.562" fill="#261951"/>
  <path d="m183.75 183.96h-168.91c0-89.01 78.906-170.1 168.91-170.1v170.1" fill="#261951"/>
  <path d="m301.67 183.96h-46.458c20.781-7.9167 38.542-26.719 46.458-47.448v47.448" fill="#261951"/>
  <path d="m301.67 191.87v276.67c-150.83 1.3021-286.82-127.29-286.82-276.67h286.82" fill="#261951"/>
  <path d="m0 234.9c36.614 196.82 222.24 254.9 300.68 252.71h-300.68v-252.71" fill="#261951"/>
 </g>
</svg>
