<?xml version="1.0" encoding="utf-8"?>
<!-- Generator: Adobe Illustrator 26.0.3, SVG Export Plug-In . SVG Version: 6.00 Build 0)  -->
<svg version="1.0" id="Layer_1" xmlns="http://www.w3.org/2000/svg" xmlns:xlink="http://www.w3.org/1999/xlink" x="0px" y="0px"
	 viewBox="0 0 865.1 607.3" style="enable-background:new 0 0 865.1 607.3;" xml:space="preserve">
<style type="text/css">
	.st0{fill:#6DC7DD;}
	.st1{fill:#1E1E1C;}
</style>
<path class="st0" d="M157.6,208.4c1.1-0.3,2.3-0.5,3.4-0.4c33,0,66,0,99,0c15.2,0,30.7,3.7,43.8,11.6c8.3,4.8,15.6,11.3,21.4,18.9
	c10.6,13.4,16,30.5,16.1,47.5c0.2,22.3-5.8,44.2-17.3,63.3c-10.5,17.4-26,31.2-44.5,39.6c-17.5,8.1-37.1,10.8-56.3,10.4
	c-3.7-0.2-8.5,1-11-2.5c-2.9-3.5-0.4-9.5,4.2-9.9c7.6-0.3,15.4,0.2,23-0.6c23.4-2.2,46.3-12,62.8-28.9
	c13.3-13.5,21.8-31.4,24.8-50.1c2.6-16.2,2.8-33.5-4.2-48.7c-6.3-13.9-17.5-25.1-31.5-31.4c-7.7-3.5-15.9-5.6-24.2-6.3
	c-6.4-0.5-12.8-0.3-19.1-0.3h-87.7c-3,0.2-5.7-1.7-6.5-4.6C152.8,212.8,154.5,209.5,157.6,208.4z"/>
<path class="st0" d="M86.3,251.8c9.1-0.2,18.2,0,27.3-0.1c3.5-0.2,6.4,2.5,6.6,5.9s-2.5,6.4-5.9,6.6c-0.2,0-0.5,0-0.7,0
	c-8.7,0-17.4,0-26.2,0c-3.5,0.1-6.3-2.7-6.4-6.1C80.9,255,83.2,252.3,86.3,251.8L86.3,251.8z"/>
<path class="st0" d="M137.9,252.6c1.2-0.5,2.5-0.8,3.9-0.7h100.4c6.9,0,13.9-0.3,20.7,1.4c12.3,2.9,23.3,11.4,28.6,22.9
	c4.1,8.5,4.7,18.2,3.4,27.4c-1.9,14.9-9.4,29.2-21.1,38.7c-11.8,9.9-27.6,13.7-42.8,13.1c-35.3,0-70.7,0-106.1,0
	c-3.5,0.1-6.4-2.6-6.5-6c-0.1-3.5,2.6-6.4,6-6.5c0.2,0,0.3,0,0.5,0c36.7,0,73.5,0,110.2,0c10.7,0,21.6-3,30.1-9.8
	c11.2-8.8,17.5-23,17.8-37.1c0.4-7.4-2-14.8-6.7-20.5c-6-7.2-15.5-10.9-24.7-10.9c-36.8,0-73.6,0-110.4,0c-3.5,0.2-6.4-2.4-6.6-5.9
	C134.3,256.1,135.7,253.7,137.9,252.6L137.9,252.6z"/>
<path class="st0" d="M165.4,386.7c8.4,0,16.8-0.1,25.1,0c3.4,0.2,6.1,3.1,5.9,6.5c-0.2,3.4-3.1,6.1-6.5,5.9c-8.2,0-16.5,0.1-24.7,0
	c-3.5-0.2-6.1-3.1-5.9-6.6C159.4,389.4,162.1,386.8,165.4,386.7L165.4,386.7z"/>
<path class="st1" d="M480.1,225.8c0-3,3.9-3.1,6-2.7c4.2,0.7,5.2,5.6,4.8,9.2c-3.2,36.7-6.4,73.4-9.6,110.1
	c-0.1,2.5-1.7,5.2-4.4,5.6c-2.6,0.6-6.4,0-7-3.2c-0.4-3.6,0.5-7.2,0.6-10.9c-6.1,7.5-14.6,12.7-24.1,14.5
	c-10.6,2.1-22.3,0.7-31.4-5.7c-8.8-6-14.1-16.1-15.5-26.5c-1.9-13.4,1-27.6,8.8-38.8c6.3-9.2,15.9-15.8,26.8-18.3
	c8-1.9,16.4-1.6,24.2,1.1c6.8,2.2,12.6,6.6,16.6,12.5C477.4,257.2,478.7,241.5,480.1,225.8z M439.2,268.9
	c-10.1,1.8-18.9,8.8-23.6,17.8c-5.1,9.8-6.4,21.1-3.6,31.8c2.2,8.5,8.5,16.1,17,18.9c15.6,5.3,34.4-3,41.2-18
	c2.9-5.8,2.7-12.4,3.4-18.7c0.2-3.5,0.7-7,0.9-10.6c-1.9-7-6.1-13.6-12.4-17.5C455.3,268.5,446.9,267.6,439.2,268.9z"/>
<path class="st1" d="M773.3,225.2c0-1.1,1.2-1.7,2.2-2c2.4-0.6,5.5-0.3,7.1,1.9c1.8,2.4,1.6,5.6,1.4,8.5
	c-3.2,36.3-6.4,72.7-9.5,109.1c-0.1,2.6-2,5.2-4.7,5.4c-2.6,0.5-6.2-0.3-6.6-3.4c-0.3-3.6,0.5-7.2,0.6-10.8
	c-5.5,6.9-13.1,11.8-21.7,14c-11.2,2.8-23.9,1.8-33.6-4.9c-8.9-6-14.3-16.1-15.8-26.5c-2-14,1.3-29,9.8-40.4
	c6.3-8.4,15.3-14.4,25.5-16.9c8.2-2,16.8-1.6,24.8,1.2c6.6,2.3,12.3,6.6,16.2,12.4C770.5,256.9,771.8,241,773.3,225.2z M732.5,268.9
	c-10.5,1.7-19.6,9.1-24.3,18.6c-4.9,9.9-6,21.2-3,31.8c2.4,8.3,8.8,15.6,17.2,18.2c15.7,5.1,34.2-3.4,40.9-18.4
	c2.7-5.7,2.6-12.2,3.3-18.4c0.2-3.5,0.7-7.1,0.9-10.6c-1.8-7.1-6.2-13.3-12.2-17.4C748.5,268.6,740.2,267.6,732.5,268.9z"/>
<path class="st1" d="M672.4,225.6c3.2-1.4,8-1.3,10.1,2c1.9,3.9,0.7,9.7-3.6,11.3c-3.4,1.2-8.4,1-9.9-2.8
	C667.6,232.5,668.6,227.4,672.4,225.6z"/>
<path class="st1" d="M538.7,258.5c5.3-0.9,11.7-0.9,15.9,2.9c3.2,2.8,2.5,8.3-0.9,10.6c-0.8,0.6-1.9,0.5-2.5-0.2
	c-4.1-3.3-9.9-3.4-14.7-1.9c-6.5,2.1-10.9,7.9-13.5,13.9c-4.6,10.4-5,22-6,33.2c-0.7,8.3-1.4,16.6-2.2,24.8
	c-0.2,2.2-0.9,4.7-3.1,5.7c-3.1,1.3-8.3,0.5-8.4-3.7c0.4-8.7,1.5-17.4,2.1-26c1.6-18.7,3.3-37.4,4.9-56.1c-0.1-1.3,1.2-2,2.3-2.3
	c2.6-0.8,6-0.2,7.3,2.4c1.6,3,1,6.5,0.8,9.8C524.4,265,531,259.8,538.7,258.5z"/>
<path class="st1" d="M568.5,264c0.3-2.9,2.9-5.1,5.8-4.8c0.1,0,0.2,0,0.3,0c2.5-0.4,4.8,1.3,5.2,3.7c0.1,0.4,0.1,0.8,0,1.1
	c-1.2,15.6-2.7,31.1-4,46.6c-0.4,6.5,0.2,13.4,3.8,19c2.8,4.3,7.2,7.2,12.2,8.1c10.6,2,21.5-1.4,29.2-9c2.9-2.8,5.3-6.1,7-9.8
	c1.7-18.1,3.2-36.3,4.8-54.4c0.1-2.2,1.2-4.6,3.5-5.1c2.1-0.4,4.6-0.7,6.4,0.6c1.6,1.2,1.7,3.4,1.5,5.2c-2.3,26.7-4.7,53.3-7,80
	c0.1,1.5-1.5,2.1-2.7,2.4c-2.5,0.7-5.7,0-6.9-2.5c-1.6-3.1-1-6.8-0.8-10.1c-6.6,7.8-16,12.8-26.2,13.9c-8.1,0.8-16.7-0.4-23.6-4.9
	c-5.4-3.7-9.4-9.2-11.2-15.6c-2-6.6-2-13.5-1.4-20.3C565.9,293.5,567,278.8,568.5,264z"/>
<path class="st1" d="M670.3,259.6c3.1-1.1,8.2-0.5,8.3,3.7c-0.5,9.2-1.6,18.4-2.3,27.5c-1.6,17.6-3,35.2-4.7,52.7
	c-0.4,4.4-6,5.5-9.4,3.8c-1.9-1.1-2.1-3.5-1.9-5.5c2.3-25.7,4.5-51.4,6.8-77.2C667.3,262.7,668.2,260.4,670.3,259.6z"/>
</svg>
