<svg width="81" height="80" viewBox="0 0 81 80" fill="none" xmlns="http://www.w3.org/2000/svg">
    <path d="M62.8873 52.7477C62.8074 52.5878 62.5676 52.468 62.3678 52.468H54.6153C54.4154 52.468 54.1757 52.3481 54.0958 52.1882L40.7087 30.8888C40.6288 30.729 40.4689 30.729 40.349 30.8888L26.9619 52.1882C26.882 52.3481 26.6423 52.468 26.4424 52.468H18.65C18.4502 52.468 18.2104 52.5878 18.1305 52.7477L16.3322 55.585C16.2523 55.7448 16.2922 55.8647 16.492 55.8647H28.4805C28.6803 55.8647 28.9201 55.7448 29 55.585L40.3091 37.6023C40.389 37.4425 40.5888 37.4425 40.6687 37.6023L51.9778 55.585C52.0577 55.7448 52.2975 55.8647 52.4973 55.8647H64.4857C64.6855 55.8647 64.7655 55.7448 64.6456 55.585" fill="#2490FA"/>
    <path d="M68.9614 62.4184C69.0413 62.5782 69.0014 62.6981 68.8016 62.6981H48.3413C48.1415 62.6981 47.9017 62.5782 47.8218 62.4184L40.7087 51.0693C40.6287 50.9095 40.4689 50.9095 40.349 51.0693L33.1959 62.4184C33.116 62.5782 32.8762 62.6981 32.6764 62.6981H12.2162C12.0164 62.6981 11.9364 62.5782 12.0563 62.4184L13.8546 59.5811C13.9345 59.4212 14.1743 59.3014 14.3741 59.3014H30.5984C30.7982 59.3014 31.038 59.1815 31.1179 59.0216L40.3091 44.3558C40.389 44.1959 40.5488 44.1959 40.6687 44.3558L49.8598 59.0216C49.9398 59.1815 50.1795 59.3014 50.3793 59.3014H66.6037C66.8035 59.3014 67.0433 59.4212 67.1232 59.5811M40.6687 57.8228C40.5888 57.6629 40.4289 57.6629 40.3091 57.8228L37.4318 62.4184C37.3519 62.5782 37.3919 62.6981 37.5917 62.6981H43.3861C43.5859 62.6981 43.6658 62.5782 43.5459 62.4184" fill="#2549C9"/>
    <path d="M40.3491 17.4218C40.429 17.2619 40.5888 17.2619 40.7087 17.4218L60.4097 48.7915C60.4896 48.9513 60.4497 49.0712 60.2499 49.0712H56.7332C56.5334 49.0712 56.2937 48.9513 56.2137 48.7915L40.7487 24.1752C40.6688 24.0154 40.5089 24.0154 40.389 24.1752L24.884 48.7915C24.8041 48.9513 24.5643 49.0712 24.3645 49.0712H20.8479C20.6481 49.0712 20.5682 48.9513 20.688 48.7915" fill="#85C1FC"/>
</svg>
