<?xml version="1.0" encoding="UTF-8" standalone="no"?> <svg xmlns="http://www.w3.org/2000/svg" version="1.0" width="475.000000pt" height="240.000000pt" viewBox="0 0 475.000000 240.000000" preserveAspectRatio="xMidYMid meet"><g transform="translate(0.000000,240.000000) scale(0.100000,-0.100000)" fill="#000000" stroke="none"><path d="M1170 1945 l0 -35 236 0 235 0 -3 33 -3 32 -232 3 -233 2 0 -35z"></path><path d="M1700 1945 l0 -35 333 0 332 0 -30 20 c-65 43 -119 50 -384 50 l-251 0 0 -35z"></path><path d="M2510 1945 l0 -35 195 0 194 0 -14 33 -13 32 -181 3 -181 2 0 -35z"></path><path d="M3189 1954 c-5 -15 -12 -31 -15 -35 -3 -5 85 -9 195 -9 l201 0 0 35 0 35 -185 0 -185 0 -11 -26z"></path><path d="M1170 1810 l0 -30 235 0 235 0 0 30 0 30 -235 0 -235 0 0 -30z"></path><path d="M1700 1810 l0 -30 370 0 c255 0 370 3 370 11 0 6 -5 19 -10 30 -10 18 -25 19 -370 19 l-360 0 0 -30z"></path><path d="M2510 1810 l0 -30 215 0 c118 0 215 2 215 4 0 3 -4 16 -10 30 l-10 26 -205 0 -205 0 0 -30z"></path><path d="M3140 1814 c-6 -14 -10 -27 -10 -30 0 -2 99 -4 220 -4 l220 0 0 30 0 30 -210 0 -210 0 -10 -26z"></path><path d="M1300 1680 l0 -30 100 0 100 0 0 30 0 30 -100 0 -100 0 0 -30z"></path><path d="M1830 1680 l0 -30 100 0 100 0 0 30 0 30 -100 0 -100 0 0 -30z"></path><path d="M2240 1680 l0 -30 100 0 c80 0 100 3 100 14 0 8 3 21 6 30 5 14 -7 16 -100 16 l-106 0 0 -30z"></path><path d="M2640 1680 l0 -30 174 0 175 0 -10 30 -11 30 -164 0 -164 0 0 -30z"></path><path d="M3091 1680 l-10 -30 180 0 179 0 0 30 0 30 -169 0 -169 0 -11 -30z"></path><path d="M1300 1555 l0 -35 100 0 100 0 0 35 0 35 -100 0 -100 0 0 -35z"></path><path d="M1834 1576 c-3 -8 -4 -23 -2 -33 3 -17 21 -18 260 -21 l257 -2 25 27 c14 15 26 31 26 35 0 5 -126 8 -280 8 -235 0 -282 -2 -286 -14z"></path><path d="M2640 1555 l0 -35 94 0 c90 0 95 1 99 23 l4 22 8 -22 c7 -23 9 -23 191 -23 182 0 185 0 194 23 l9 22 0 -22 c1 -22 4 -23 102 -23 l100 0 -3 33 -3 32 -186 3 -186 2 -14 -32 -13 -32 -13 32 -13 32 -185 0 -185 0 0 -35z"></path><path d="M1300 1425 l0 -35 100 0 100 0 0 35 0 35 -100 0 -100 0 0 -35z"></path><path d="M1834 1446 c-3 -8 -4 -23 -2 -33 3 -17 23 -18 293 -21 l289 -2 -34 35 -34 35 -253 0 c-212 0 -255 -2 -259 -14z"></path><path d="M2640 1425 l0 -35 95 0 95 0 0 35 0 35 -95 0 -95 0 0 -35z"></path><path d="M2880 1451 c0 -5 4 -21 10 -35 l10 -26 139 0 c123 0 139 2 144 18 2 9 8 25 12 35 7 16 -4 17 -154 17 -93 0 -161 -4 -161 -9z"></path><path d="M3240 1425 l0 -36 98 3 97 3 3 33 3 32 -100 0 -101 0 0 -35z"></path><path d="M1302 1298 l3 -33 98 -3 97 -3 0 36 0 35 -101 0 -100 0 3 -32z"></path><path d="M1834 1316 c-3 -8 -4 -23 -2 -33 3 -16 16 -18 101 -21 l97 -3 0 36 0 35 -95 0 c-74 0 -97 -3 -101 -14z"></path><path d="M2240 1295 l0 -35 105 0 c97 0 105 1 105 19 0 48 -7 51 -111 51 l-99 0 0 -35z"></path><path d="M2640 1295 l0 -35 95 0 95 0 0 35 0 35 -95 0 -95 0 0 -35z"></path><path d="M2920 1325 c0 -4 7 -19 15 -35 15 -30 16 -30 104 -30 84 0 88 1 99 25 7 14 12 30 12 35 0 6 -49 10 -115 10 -63 0 -115 -2 -115 -5z"></path><path d="M3242 1298 l3 -33 95 0 95 0 3 33 3 32 -101 0 -101 0 3 -32z"></path><path d="M1170 1170 l0 -30 235 0 235 0 0 30 0 30 -235 0 -235 0 0 -30z"></path><path d="M1700 1170 l0 -30 360 0 c345 0 360 1 370 19 5 11 10 24 10 30 0 8 -115 11 -370 11 l-370 0 0 -30z"></path><path d="M2510 1170 l0 -30 160 0 160 0 0 30 0 30 -160 0 -160 0 0 -30z"></path><path d="M2970 1196 c0 -3 4 -16 10 -30 8 -23 15 -26 59 -26 46 0 50 2 60 30 l10 30 -70 0 c-38 0 -69 -2 -69 -4z"></path><path d="M3240 1170 l0 -30 165 0 165 0 0 30 0 30 -165 0 -165 0 0 -30z"></path><path d="M1170 1040 l0 -30 235 0 235 0 0 30 0 30 -235 0 -235 0 0 -30z"></path><path d="M1700 1040 l0 -30 278 0 c273 0 278 1 330 25 28 13 52 27 52 30 0 3 -148 5 -330 5 l-330 0 0 -30z"></path><path d="M2510 1040 l0 -30 160 0 160 0 0 30 0 30 -160 0 -160 0 0 -30z"></path><path d="M3022 1039 c11 -32 21 -29 33 9 5 19 3 22 -19 22 -24 0 -24 -2 -14 -31z"></path><path d="M3240 1040 l0 -30 165 0 165 0 0 30 0 30 -165 0 -165 0 0 -30z"></path><path d="M1938 818 c-54 -14 -88 -59 -88 -114 0 -62 26 -86 120 -109 96 -23 110 -30 110 -60 0 -31 -26 -45 -84 -45 -39 0 -49 4 -68 30 -22 30 -70 42 -83 20 -11 -17 24 -75 58 -95 45 -27 151 -26 198 1 48 28 67 85 46 135 -16 39 -27 45 -162 86 -66 20 -79 40 -49 74 24 26 87 26 114 -1 11 -11 20 -24 20 -30 0 -5 16 -10 35 -10 30 0 35 3 35 23 0 70 -108 121 -202 95z"></path><path d="M2258 629 l-76 -200 30 3 c30 3 32 8 99 183 91 238 86 215 52 215 -29 0 -31 -4 -105 -201z"></path><path d="M1552 638 c-33 -95 -64 -181 -67 -190 -6 -15 -1 -18 32 -18 37 0 41 3 56 40 l16 41 72 -3 72 -3 12 -35 c11 -32 15 -35 55 -38 38 -3 42 -1 36 15 -4 10 -35 96 -68 191 l-61 172 -47 0 -47 0 -61 -172z m134 12 c12 -38 19 -72 16 -75 -8 -8 -92 -6 -92 2 0 15 44 143 49 143 4 0 16 -32 27 -70z"></path><path d="M2751 797 c-45 -23 -64 -60 -69 -141 -2 -41 -1 -95 2 -120 14 -88 78 -130 167 -106 58 16 83 73 82 190 0 131 -39 190 -126 190 -18 0 -43 -6 -56 -13z m93 -69 c18 -26 22 -170 7 -211 -20 -53 -75 -45 -92 13 -15 48 -8 182 10 204 19 23 57 20 75 -6z"></path><path d="M3051 797 c-45 -23 -64 -60 -69 -141 -2 -41 -1 -95 2 -120 14 -88 78 -130 167 -106 58 16 83 73 82 190 0 131 -39 190 -126 190 -18 0 -43 -6 -56 -13z m93 -69 c18 -26 22 -170 7 -211 -20 -53 -75 -45 -92 13 -15 48 -8 182 10 204 19 23 57 20 75 -6z"></path><path d="M2448 693 c-53 -84 -68 -116 -68 -145 l0 -38 75 0 75 0 0 -40 c0 -39 1 -40 35 -40 34 0 35 1 35 40 0 33 3 40 20 40 16 0 20 7 20 30 0 23 -4 30 -20 30 -19 0 -20 7 -20 115 l0 115 -42 0 -43 0 -67 -107z m80 -45 l-3 -73 -33 -3 c-63 -6 -65 1 -19 77 23 39 46 70 50 71 4 0 7 -33 5 -72z"></path></g></svg>