<?xml version="1.0" encoding="UTF-8"?>
<svg xmlns="http://www.w3.org/2000/svg" xmlns:xlink="http://www.w3.org/1999/xlink" width="80px" height="52px" viewBox="0 0 80 52" version="1.1">
<g id="surface1">
<path style=" stroke:none;fill-rule:evenodd;fill:rgb(0%,26.27451%,100%);fill-opacity:1;" d="M -0.144531 -0.144531 C 5.019531 -0.144531 10.179688 -0.144531 15.339844 -0.144531 C 15.339844 0.621094 15.339844 1.386719 15.339844 2.15625 C 10.179688 2.15625 5.019531 2.15625 -0.144531 2.15625 C -0.144531 1.386719 -0.144531 0.621094 -0.144531 -0.144531 Z M -0.144531 -0.144531 "/>
<path style=" stroke:none;fill-rule:evenodd;fill:rgb(98.823529%,98.823529%,100%);fill-opacity:1;" d="M 15.339844 -0.144531 C 16.007812 -0.144531 16.679688 -0.144531 17.347656 -0.144531 C 17.347656 0.621094 17.347656 1.386719 17.347656 2.15625 C 24.804688 2.203125 32.257812 2.15625 39.714844 2.011719 C 38.410156 0.976562 36.976562 0.257812 35.414062 -0.144531 C 38.375 -0.144531 41.339844 -0.144531 44.300781 -0.144531 C 44.300781 0.621094 44.300781 1.386719 44.300781 2.15625 C 48.703125 2.25 53.097656 2.15625 57.492188 1.867188 C 57.257812 1.164062 56.972656 0.496094 56.628906 -0.144531 C 60.167969 -0.144531 63.703125 -0.144531 67.238281 -0.144531 C 67.167969 0.554688 66.976562 1.226562 66.667969 1.867188 C 71.058594 2.15625 75.457031 2.25 79.855469 2.15625 C 79.855469 2.824219 79.855469 3.496094 79.855469 4.164062 C 75.171875 4.117188 70.488281 4.164062 65.804688 4.308594 C 65.414062 4.96875 65.222656 5.6875 65.234375 6.464844 C 70.109375 6.464844 74.980469 6.464844 79.855469 6.464844 C 79.855469 12.878906 79.855469 19.296875 79.855469 25.710938 C 76.222656 25.710938 72.59375 25.710938 68.960938 25.710938 C 68.960938 26.480469 68.960938 27.246094 68.960938 28.011719 C 72.59375 28.011719 76.222656 28.011719 79.855469 28.011719 C 79.855469 28.679688 79.855469 29.351562 79.855469 30.023438 C 76.222656 30.023438 72.59375 30.023438 68.960938 30.023438 C 68.960938 30.789062 68.960938 31.554688 68.960938 32.320312 C 72.59375 32.320312 76.222656 32.320312 79.855469 32.320312 C 79.855469 38.832031 79.855469 45.34375 79.855469 51.855469 C 75.171875 51.855469 70.488281 51.855469 65.804688 51.855469 C 66.949219 51.335938 67.757812 50.472656 68.242188 49.269531 C 68.667969 47.085938 68.761719 44.882812 68.53125 42.664062 C 67.707031 39.113281 65.558594 38.011719 62.078125 39.359375 C 60.964844 40.296875 60.34375 41.492188 60.214844 42.949219 C 59.800781 45.664062 60.183594 48.25 61.363281 50.707031 C 61.882812 51.132812 62.40625 51.515625 62.9375 51.855469 C 60.550781 51.855469 58.160156 51.855469 55.769531 51.855469 C 56.910156 51.335938 57.722656 50.472656 58.207031 49.269531 C 58.648438 46.894531 58.742188 44.5 58.496094 42.089844 C 58.03125 39.820312 56.644531 38.769531 54.335938 38.929688 C 51.933594 38.984375 50.550781 40.230469 50.179688 42.664062 C 49.777344 45.464844 50.160156 48.148438 51.324219 50.707031 C 51.847656 51.132812 52.371094 51.515625 52.902344 51.855469 C 44.96875 51.855469 37.039062 51.855469 29.105469 51.855469 C 32.480469 50.910156 33.484375 48.800781 32.113281 45.535156 C 31.855469 45.191406 31.519531 44.953125 31.109375 44.816406 C 29.195312 44.242188 27.28125 43.667969 25.375 43.09375 C 24.582031 42.242188 24.679688 41.476562 25.664062 40.796875 C 27.53125 40.015625 28.964844 40.492188 29.964844 42.230469 C 30.722656 42.375 31.488281 42.421875 32.257812 42.375 C 32.265625 40.703125 31.5 39.503906 29.964844 38.785156 C 27.75 38.054688 25.648438 38.246094 23.65625 39.359375 C 22.4375 40.875 22.195312 42.550781 22.9375 44.386719 C 23.433594 44.996094 24.058594 45.425781 24.804688 45.679688 C 26.652344 45.964844 28.421875 46.488281 30.109375 47.257812 C 30.269531 49.058594 29.410156 49.824219 27.527344 49.558594 C 26 49.703125 25.09375 49.03125 24.804688 47.546875 C 23.941406 47.546875 23.082031 47.546875 22.222656 47.546875 C 22.351562 49.824219 23.5 51.261719 25.664062 51.855469 C 17.0625 51.855469 8.457031 51.855469 -0.144531 51.855469 C -0.144531 45.34375 -0.144531 38.832031 -0.144531 32.320312 C 5.019531 32.320312 10.179688 32.320312 15.339844 32.320312 C 15.339844 31.554688 15.339844 30.789062 15.339844 30.023438 C 10.179688 30.023438 5.019531 30.023438 -0.144531 30.023438 C -0.144531 29.351562 -0.144531 28.679688 -0.144531 28.011719 C 5.019531 28.011719 10.179688 28.011719 15.339844 28.011719 C 15.339844 27.246094 15.339844 26.480469 15.339844 25.710938 C 10.179688 25.710938 5.019531 25.710938 -0.144531 25.710938 C -0.144531 19.296875 -0.144531 12.878906 -0.144531 6.464844 C 5.019531 6.464844 10.179688 6.464844 15.339844 6.464844 C 15.339844 5.699219 15.339844 4.933594 15.339844 4.164062 C 10.179688 4.164062 5.019531 4.164062 -0.144531 4.164062 C -0.144531 3.496094 -0.144531 2.824219 -0.144531 2.15625 C 5.019531 2.15625 10.179688 2.15625 15.339844 2.15625 C 15.339844 1.386719 15.339844 0.621094 15.339844 -0.144531 Z M 15.339844 -0.144531 "/>
<path style=" stroke:none;fill-rule:evenodd;fill:rgb(4.705882%,27.058824%,100%);fill-opacity:1;" d="M 17.347656 -0.144531 C 23.371094 -0.144531 29.390625 -0.144531 35.414062 -0.144531 C 36.976562 0.257812 38.410156 0.976562 39.714844 2.011719 C 32.257812 2.15625 24.804688 2.203125 17.347656 2.15625 C 17.347656 1.386719 17.347656 0.621094 17.347656 -0.144531 Z M 17.347656 -0.144531 "/>
<path style=" stroke:none;fill-rule:evenodd;fill:rgb(3.529412%,26.666667%,100%);fill-opacity:1;" d="M 44.300781 -0.144531 C 48.410156 -0.144531 52.519531 -0.144531 56.628906 -0.144531 C 56.972656 0.496094 57.257812 1.164062 57.492188 1.867188 C 53.097656 2.15625 48.703125 2.25 44.300781 2.15625 C 44.300781 1.386719 44.300781 0.621094 44.300781 -0.144531 Z M 44.300781 -0.144531 "/>
<path style=" stroke:none;fill-rule:evenodd;fill:rgb(0.392157%,26.27451%,100%);fill-opacity:1;" d="M 67.238281 -0.144531 C 71.445312 -0.144531 75.652344 -0.144531 79.855469 -0.144531 C 79.855469 0.621094 79.855469 1.386719 79.855469 2.15625 C 75.457031 2.25 71.058594 2.15625 66.667969 1.867188 C 66.976562 1.226562 67.167969 0.554688 67.238281 -0.144531 Z M 67.238281 -0.144531 "/>
<path style=" stroke:none;fill-rule:evenodd;fill:rgb(0.784314%,27.058824%,100%);fill-opacity:1;" d="M -0.144531 4.164062 C 5.019531 4.164062 10.179688 4.164062 15.339844 4.164062 C 15.339844 4.933594 15.339844 5.699219 15.339844 6.464844 C 10.179688 6.464844 5.019531 6.464844 -0.144531 6.464844 C -0.144531 5.699219 -0.144531 4.933594 -0.144531 4.164062 Z M -0.144531 4.164062 "/>
<path style=" stroke:none;fill-rule:evenodd;fill:rgb(4.313725%,27.45098%,100%);fill-opacity:1;" d="M 17.347656 4.164062 C 25.472656 4.070312 33.597656 4.164062 41.71875 4.453125 C 42.027344 5.09375 42.21875 5.765625 42.292969 6.464844 C 33.976562 6.464844 25.664062 6.464844 17.347656 6.464844 C 17.347656 5.699219 17.347656 4.933594 17.347656 4.164062 Z M 17.347656 4.164062 "/>
<path style=" stroke:none;fill-rule:evenodd;fill:rgb(2.745098%,27.058824%,100%);fill-opacity:1;" d="M 44.300781 4.164062 C 48.984375 4.164062 53.667969 4.164062 58.351562 4.164062 C 58.542969 4.933594 58.734375 5.699219 58.925781 6.464844 C 54.050781 6.464844 49.175781 6.464844 44.300781 6.464844 C 44.300781 5.699219 44.300781 4.933594 44.300781 4.164062 Z M 44.300781 4.164062 "/>
<path style=" stroke:none;fill-rule:evenodd;fill:rgb(2.745098%,27.45098%,100%);fill-opacity:1;" d="M 79.855469 4.164062 C 79.855469 4.933594 79.855469 5.699219 79.855469 6.464844 C 74.980469 6.464844 70.109375 6.464844 65.234375 6.464844 C 65.222656 5.6875 65.414062 4.96875 65.804688 4.308594 C 70.488281 4.164062 75.171875 4.117188 79.855469 4.164062 Z M 79.855469 4.164062 "/>
<path style=" stroke:none;fill-rule:evenodd;fill:rgb(27.058824%,40%,100%);fill-opacity:1;" d="M 64.371094 8.761719 C 68.050781 8.476562 71.777344 8.378906 75.554688 8.476562 C 75.644531 9.304688 75.546875 10.070312 75.269531 10.773438 C 75.269531 10.101562 75.269531 9.433594 75.269531 8.761719 C 71.636719 8.761719 68.003906 8.761719 64.371094 8.761719 Z M 64.371094 8.761719 "/>
<path style=" stroke:none;fill-rule:evenodd;fill:rgb(7.843137%,27.45098%,100%);fill-opacity:1;" d="M 4.15625 8.476562 C 6.355469 8.476562 8.554688 8.476562 10.753906 8.476562 C 10.753906 9.242188 10.753906 10.007812 10.753906 10.773438 C 8.554688 10.773438 6.355469 10.773438 4.15625 10.773438 C 4.15625 10.007812 4.15625 9.242188 4.15625 8.476562 Z M 4.15625 8.476562 "/>
<path style=" stroke:none;fill-rule:evenodd;fill:rgb(5.882353%,27.058824%,100%);fill-opacity:1;" d="M 21.933594 8.476562 C 24.132812 8.476562 26.332031 8.476562 28.53125 8.476562 C 28.53125 9.242188 28.53125 10.007812 28.53125 10.773438 C 26.332031 10.773438 24.132812 10.773438 21.933594 10.773438 C 21.933594 10.007812 21.933594 9.242188 21.933594 8.476562 Z M 21.933594 8.476562 "/>
<path style=" stroke:none;fill-rule:evenodd;fill:rgb(6.666667%,27.058824%,100%);fill-opacity:1;" d="M 35.414062 8.476562 C 37.707031 8.476562 40 8.476562 42.292969 8.476562 C 42.292969 9.242188 42.292969 10.007812 42.292969 10.773438 C 40 10.773438 37.707031 10.773438 35.414062 10.773438 C 35.414062 10.007812 35.414062 9.242188 35.414062 8.476562 Z M 35.414062 8.476562 "/>
<path style=" stroke:none;fill-rule:evenodd;fill:rgb(7.058824%,27.058824%,100%);fill-opacity:1;" d="M 48.890625 8.476562 C 52.523438 8.425781 56.152344 8.476562 59.785156 8.617188 C 60.175781 9.28125 60.367188 10 60.359375 10.773438 C 56.535156 10.773438 52.710938 10.773438 48.890625 10.773438 C 48.890625 10.007812 48.890625 9.242188 48.890625 8.476562 Z M 48.890625 8.476562 "/>
<path style=" stroke:none;fill-rule:evenodd;fill:rgb(0.784314%,25.490196%,100%);fill-opacity:1;" d="M 64.371094 8.761719 C 68.003906 8.761719 71.636719 8.761719 75.269531 8.761719 C 75.269531 9.433594 75.269531 10.101562 75.269531 10.773438 C 71.347656 10.820312 67.429688 10.773438 63.511719 10.628906 C 63.777344 9.972656 64.0625 9.347656 64.371094 8.761719 Z M 64.371094 8.761719 "/>
<path style=" stroke:none;fill-rule:evenodd;fill:rgb(3.137255%,27.058824%,100%);fill-opacity:1;" d="M 4.15625 12.785156 C 6.355469 12.785156 8.554688 12.785156 10.753906 12.785156 C 10.753906 13.550781 10.753906 14.316406 10.753906 15.082031 C 8.554688 15.082031 6.355469 15.082031 4.15625 15.082031 C 4.15625 14.316406 4.15625 13.550781 4.15625 12.785156 Z M 4.15625 12.785156 "/>
<path style=" stroke:none;fill-rule:evenodd;fill:rgb(3.137255%,27.058824%,100%);fill-opacity:1;" d="M 21.933594 12.785156 C 28.246094 12.6875 34.554688 12.785156 40.859375 13.070312 C 40.488281 13.773438 40.007812 14.394531 39.425781 14.9375 C 33.597656 15.082031 27.765625 15.128906 21.933594 15.082031 C 21.933594 14.316406 21.933594 13.550781 21.933594 12.785156 Z M 21.933594 12.785156 "/>
<path style=" stroke:none;fill-rule:evenodd;fill:rgb(6.27451%,27.45098%,100%);fill-opacity:1;" d="M 48.890625 12.785156 C 53 12.738281 57.109375 12.785156 61.21875 12.929688 C 61.902344 15.0625 62.382812 15.011719 62.652344 12.785156 C 66.953125 12.785156 71.253906 12.785156 75.554688 12.785156 C 75.554688 13.550781 75.554688 14.316406 75.554688 15.082031 C 73.355469 15.082031 71.160156 15.082031 68.960938 15.082031 C 68.933594 13.214844 68.742188 13.214844 68.386719 15.082031 C 64.179688 15.082031 59.976562 15.082031 55.769531 15.082031 C 55.449219 13.226562 55.257812 13.226562 55.195312 15.082031 C 53.09375 15.082031 50.992188 15.082031 48.890625 15.082031 C 48.890625 14.316406 48.890625 13.550781 48.890625 12.785156 Z M 48.890625 12.785156 "/>
<path style=" stroke:none;fill-rule:evenodd;fill:rgb(2.352941%,26.27451%,100%);fill-opacity:1;" d="M 4.15625 17.09375 C 6.355469 17.09375 8.554688 17.09375 10.753906 17.09375 C 10.753906 17.859375 10.753906 18.625 10.753906 19.390625 C 8.554688 19.390625 6.355469 19.390625 4.15625 19.390625 C 4.15625 18.625 4.15625 17.859375 4.15625 17.09375 Z M 4.15625 17.09375 "/>
<path style=" stroke:none;fill-rule:evenodd;fill:rgb(1.176471%,26.27451%,100%);fill-opacity:1;" d="M 21.933594 17.09375 C 27.765625 17.046875 33.597656 17.09375 39.425781 17.238281 C 40.105469 17.824219 40.679688 18.492188 41.148438 19.25 C 34.742188 19.390625 28.339844 19.441406 21.933594 19.390625 C 21.933594 18.625 21.933594 17.859375 21.933594 17.09375 Z M 21.933594 17.09375 "/>
<path style=" stroke:none;fill-rule:evenodd;fill:rgb(0%,25.490196%,100%);fill-opacity:1;" d="M 48.890625 17.09375 C 50.992188 17.09375 53.09375 17.09375 55.195312 17.09375 C 55.195312 17.859375 55.195312 18.625 55.195312 19.390625 C 53.09375 19.390625 50.992188 19.390625 48.890625 19.390625 C 48.890625 18.625 48.890625 17.859375 48.890625 17.09375 Z M 48.890625 17.09375 "/>
<path style=" stroke:none;fill-rule:evenodd;fill:rgb(0.392157%,25.882353%,100%);fill-opacity:1;" d="M 56.628906 17.382812 C 60.214844 17.046875 63.84375 17 67.527344 17.238281 C 67.238281 17.90625 66.953125 18.578125 66.667969 19.25 C 63.605469 19.488281 60.546875 19.441406 57.492188 19.105469 C 57.199219 18.5 56.914062 17.925781 56.628906 17.382812 Z M 56.628906 17.382812 "/>
<path style=" stroke:none;fill-rule:evenodd;fill:rgb(9.019608%,27.058824%,100%);fill-opacity:1;" d="M 68.960938 17.09375 C 71.160156 17.09375 73.355469 17.09375 75.554688 17.09375 C 75.554688 17.859375 75.554688 18.625 75.554688 19.390625 C 73.355469 19.390625 71.160156 19.390625 68.960938 19.390625 C 68.960938 18.625 68.960938 17.859375 68.960938 17.09375 Z M 68.960938 17.09375 "/>
<path style=" stroke:none;fill-rule:evenodd;fill:rgb(4.313725%,26.666667%,100%);fill-opacity:1;" d="M 4.15625 21.402344 C 6.355469 21.402344 8.554688 21.402344 10.753906 21.402344 C 10.753906 22.167969 10.753906 22.933594 10.753906 23.703125 C 8.554688 23.703125 6.355469 23.703125 4.15625 23.703125 C 4.15625 22.933594 4.15625 22.167969 4.15625 21.402344 Z M 4.15625 21.402344 "/>
<path style=" stroke:none;fill-rule:evenodd;fill:rgb(5.490196%,27.058824%,100%);fill-opacity:1;" d="M 21.933594 21.402344 C 24.230469 21.402344 26.523438 21.402344 28.816406 21.402344 C 28.816406 22.167969 28.816406 22.933594 28.816406 23.703125 C 26.523438 23.703125 24.230469 23.703125 21.933594 23.703125 C 21.933594 22.933594 21.933594 22.167969 21.933594 21.402344 Z M 21.933594 21.402344 "/>
<path style=" stroke:none;fill-rule:evenodd;fill:rgb(5.098039%,27.058824%,100%);fill-opacity:1;" d="M 35.414062 21.402344 C 37.714844 21.308594 40.007812 21.402344 42.292969 21.691406 C 42.542969 22.335938 42.640625 23.007812 42.582031 23.703125 C 40.191406 23.703125 37.800781 23.703125 35.414062 23.703125 C 35.414062 22.933594 35.414062 22.167969 35.414062 21.402344 Z M 35.414062 21.402344 "/>
<path style=" stroke:none;fill-rule:evenodd;fill:rgb(1.960784%,26.27451%,100%);fill-opacity:1;" d="M 48.890625 21.402344 C 50.992188 21.402344 53.09375 21.402344 55.195312 21.402344 C 55.195312 22.167969 55.195312 22.933594 55.195312 23.703125 C 53.09375 23.703125 50.992188 23.703125 48.890625 23.703125 C 48.890625 22.933594 48.890625 22.167969 48.890625 21.402344 Z M 48.890625 21.402344 "/>
<path style=" stroke:none;fill-rule:evenodd;fill:rgb(3.529412%,26.27451%,100%);fill-opacity:1;" d="M 58.351562 21.402344 C 60.933594 21.355469 63.515625 21.402344 66.09375 21.546875 C 65.722656 22.128906 65.4375 22.75 65.234375 23.414062 C 63.128906 23.796875 61.027344 23.796875 58.925781 23.414062 C 58.617188 22.773438 58.425781 22.101562 58.351562 21.402344 Z M 58.351562 21.402344 "/>
<path style=" stroke:none;fill-rule:evenodd;fill:rgb(8.235294%,27.058824%,100%);fill-opacity:1;" d="M 68.960938 21.402344 C 71.160156 21.402344 73.355469 21.402344 75.554688 21.402344 C 75.554688 22.167969 75.554688 22.933594 75.554688 23.703125 C 73.355469 23.703125 71.160156 23.703125 68.960938 23.703125 C 68.960938 22.933594 68.960938 22.167969 68.960938 21.402344 Z M 68.960938 21.402344 "/>
<path style=" stroke:none;fill-rule:evenodd;fill:rgb(14.509804%,29.019608%,100%);fill-opacity:1;" d="M -0.144531 25.710938 C 5.019531 25.710938 10.179688 25.710938 15.339844 25.710938 C 15.339844 26.480469 15.339844 27.246094 15.339844 28.011719 C 10.179688 28.011719 5.019531 28.011719 -0.144531 28.011719 C -0.144531 27.246094 -0.144531 26.480469 -0.144531 25.710938 Z M -0.144531 25.710938 "/>
<path style=" stroke:none;fill-rule:evenodd;fill:rgb(0%,25.490196%,100%);fill-opacity:1;" d="M 17.632812 25.710938 C 25.855469 25.617188 34.078125 25.710938 42.292969 26 C 42.113281 26.65625 41.824219 27.230469 41.433594 27.722656 C 33.5 27.722656 25.566406 27.722656 17.632812 27.722656 C 17.632812 27.054688 17.632812 26.382812 17.632812 25.710938 Z M 17.632812 25.710938 "/>
<path style=" stroke:none;fill-rule:evenodd;fill:rgb(14.117647%,28.235294%,100%);fill-opacity:1;" d="M 59.785156 25.710938 C 61.324219 25.617188 62.855469 25.714844 64.371094 26 C 64.0625 26.640625 63.871094 27.3125 63.800781 28.011719 C 62.652344 28.011719 61.503906 28.011719 60.359375 28.011719 C 60.226562 27.230469 60.035156 26.464844 59.785156 25.710938 Z M 59.785156 25.710938 "/>
<path style=" stroke:none;fill-rule:evenodd;fill:rgb(14.509804%,29.019608%,100%);fill-opacity:1;" d="M 79.855469 25.710938 C 79.855469 26.480469 79.855469 27.246094 79.855469 28.011719 C 76.222656 28.011719 72.59375 28.011719 68.960938 28.011719 C 68.960938 27.246094 68.960938 26.480469 68.960938 25.710938 C 72.59375 25.710938 76.222656 25.710938 79.855469 25.710938 Z M 79.855469 25.710938 "/>
<path style=" stroke:none;fill-rule:evenodd;fill:rgb(45.098039%,54.901961%,100%);fill-opacity:1;" d="M 17.632812 25.710938 C 17.632812 26.382812 17.632812 27.054688 17.632812 27.722656 C 25.566406 27.722656 33.5 27.722656 41.433594 27.722656 C 33.453125 28.011719 25.425781 28.105469 17.347656 28.011719 C 17.261719 27.183594 17.355469 26.414062 17.632812 25.710938 Z M 17.632812 25.710938 "/>
<path style=" stroke:none;fill-rule:evenodd;fill:rgb(47.058824%,55.686275%,100%);fill-opacity:1;" d="M 44.585938 25.710938 C 44.585938 26.382812 44.585938 27.054688 44.585938 27.722656 C 48.125 27.722656 51.660156 27.722656 55.195312 27.722656 C 55.195312 27.054688 55.195312 26.382812 55.195312 25.710938 C 55.476562 26.414062 55.570312 27.183594 55.484375 28.011719 C 51.757812 28.011719 48.027344 28.011719 44.300781 28.011719 C 44.214844 27.183594 44.308594 26.414062 44.585938 25.710938 Z M 44.585938 25.710938 "/>
<path style=" stroke:none;fill-rule:evenodd;fill:rgb(0%,25.490196%,100%);fill-opacity:1;" d="M 44.585938 25.710938 C 48.125 25.710938 51.660156 25.710938 55.195312 25.710938 C 55.195312 26.382812 55.195312 27.054688 55.195312 27.722656 C 51.660156 27.722656 48.125 27.722656 44.585938 27.722656 C 44.585938 27.054688 44.585938 26.382812 44.585938 25.710938 Z M 44.585938 25.710938 "/>
<path style=" stroke:none;fill-rule:evenodd;fill:rgb(81.568627%,83.921569%,100%);fill-opacity:1;" d="M 17.347656 30.023438 C 24.851562 29.640625 32.402344 29.640625 40 30.023438 C 39.964844 30.195312 39.867188 30.292969 39.714844 30.308594 C 32.402344 30.023438 25.042969 29.925781 17.632812 30.023438 C 17.539062 30.023438 17.441406 30.023438 17.347656 30.023438 Z M 17.347656 30.023438 "/>
<path style=" stroke:none;fill-rule:evenodd;fill:rgb(12.156863%,28.235294%,100%);fill-opacity:1;" d="M -0.144531 30.023438 C 5.019531 30.023438 10.179688 30.023438 15.339844 30.023438 C 15.339844 30.789062 15.339844 31.554688 15.339844 32.320312 C 10.179688 32.320312 5.019531 32.320312 -0.144531 32.320312 C -0.144531 31.554688 -0.144531 30.789062 -0.144531 30.023438 Z M -0.144531 30.023438 "/>
<path style=" stroke:none;fill-rule:evenodd;fill:rgb(0.784314%,25.490196%,100%);fill-opacity:1;" d="M 17.632812 30.023438 C 25.042969 29.925781 32.402344 30.023438 39.714844 30.308594 C 38.371094 31.363281 36.84375 31.9375 35.125 32.03125 C 29.296875 32.03125 23.464844 32.03125 17.632812 32.03125 C 17.632812 31.363281 17.632812 30.691406 17.632812 30.023438 Z M 17.632812 30.023438 "/>
<path style=" stroke:none;fill-rule:evenodd;fill:rgb(0%,25.490196%,100%);fill-opacity:1;" d="M 44.585938 30.023438 C 48.125 30.023438 51.660156 30.023438 55.195312 30.023438 C 55.195312 30.691406 55.195312 31.363281 55.195312 32.03125 C 51.660156 32.03125 48.125 32.03125 44.585938 32.03125 C 44.585938 31.363281 44.585938 30.691406 44.585938 30.023438 Z M 44.585938 30.023438 "/>
<path style=" stroke:none;fill-rule:evenodd;fill:rgb(7.45098%,25.490196%,100%);fill-opacity:1;" d="M 61.21875 30.308594 C 61.753906 29.9375 62.328125 29.9375 62.9375 30.308594 C 62.761719 30.945312 62.472656 31.519531 62.078125 32.03125 C 61.785156 31.429688 61.5 30.855469 61.21875 30.308594 Z M 61.21875 30.308594 "/>
<path style=" stroke:none;fill-rule:evenodd;fill:rgb(12.156863%,28.235294%,100%);fill-opacity:1;" d="M 79.855469 30.023438 C 79.855469 30.789062 79.855469 31.554688 79.855469 32.320312 C 76.222656 32.320312 72.59375 32.320312 68.960938 32.320312 C 68.960938 31.554688 68.960938 30.789062 68.960938 30.023438 C 72.59375 30.023438 76.222656 30.023438 79.855469 30.023438 Z M 79.855469 30.023438 "/>
<path style=" stroke:none;fill-rule:evenodd;fill:rgb(39.607843%,50.588235%,100%);fill-opacity:1;" d="M 17.347656 30.023438 C 17.441406 30.023438 17.539062 30.023438 17.632812 30.023438 C 17.632812 30.691406 17.632812 31.363281 17.632812 32.03125 C 23.464844 32.03125 29.296875 32.03125 35.125 32.03125 C 29.25 32.320312 23.324219 32.414062 17.347656 32.320312 C 17.347656 31.554688 17.347656 30.789062 17.347656 30.023438 Z M 17.347656 30.023438 "/>
<path style=" stroke:none;fill-rule:evenodd;fill:rgb(36.862745%,49.019608%,100%);fill-opacity:1;" d="M 44.585938 30.023438 C 44.585938 30.691406 44.585938 31.363281 44.585938 32.03125 C 48.125 32.03125 51.660156 32.03125 55.195312 32.03125 C 51.617188 32.320312 47.984375 32.414062 44.300781 32.320312 C 44.214844 31.492188 44.308594 30.726562 44.585938 30.023438 Z M 44.585938 30.023438 "/>
<path style=" stroke:none;fill-rule:evenodd;fill:rgb(7.45098%,27.058824%,100%);fill-opacity:1;" d="M 29.105469 51.855469 C 27.957031 51.855469 26.808594 51.855469 25.664062 51.855469 C 23.5 51.261719 22.351562 49.824219 22.222656 47.546875 C 23.082031 47.546875 23.941406 47.546875 24.804688 47.546875 C 25.09375 49.03125 26 49.703125 27.527344 49.558594 C 29.410156 49.824219 30.269531 49.058594 30.109375 47.257812 C 28.421875 46.488281 26.652344 45.964844 24.804688 45.679688 C 24.058594 45.425781 23.433594 44.996094 22.9375 44.386719 C 22.195312 42.550781 22.4375 40.875 23.65625 39.359375 C 25.648438 38.246094 27.75 38.054688 29.964844 38.785156 C 31.5 39.503906 32.265625 40.703125 32.257812 42.375 C 31.488281 42.421875 30.722656 42.375 29.964844 42.230469 C 28.964844 40.492188 27.53125 40.015625 25.664062 40.796875 C 24.679688 41.476562 24.582031 42.242188 25.375 43.09375 C 27.28125 43.667969 29.195312 44.242188 31.109375 44.816406 C 31.519531 44.953125 31.855469 45.191406 32.113281 45.535156 C 33.484375 48.800781 32.480469 50.910156 29.105469 51.855469 Z M 29.105469 51.855469 "/>
<path style=" stroke:none;fill-rule:evenodd;fill:rgb(8.235294%,26.666667%,100%);fill-opacity:1;" d="M 38.566406 38.355469 C 39.242188 38.308594 39.910156 38.355469 40.574219 38.496094 C 38.804688 42.804688 37.179688 47.160156 35.699219 51.570312 C 35.03125 51.570312 34.359375 51.570312 33.691406 51.570312 C 35.203125 47.121094 36.828125 42.714844 38.566406 38.355469 Z M 38.566406 38.355469 "/>
<path style=" stroke:none;fill-rule:evenodd;fill:rgb(7.843137%,27.058824%,100%);fill-opacity:1;" d="M 14.480469 38.640625 C 15.628906 38.640625 16.773438 38.640625 17.921875 38.640625 C 19.238281 42.886719 20.671875 47.101562 22.222656 51.28125 C 21.265625 51.664062 20.3125 51.664062 19.355469 51.28125 C 19.09375 50.546875 18.808594 49.828125 18.496094 49.128906 C 16.863281 48.886719 15.238281 48.9375 13.621094 49.269531 C 13.25 49.996094 13.058594 50.761719 13.046875 51.570312 C 12.089844 51.570312 11.136719 51.570312 10.179688 51.570312 C 11.667969 47.28125 13.101562 42.972656 14.480469 38.640625 Z M 14.480469 38.640625 "/>
<path style=" stroke:none;fill-rule:evenodd;fill:rgb(7.058824%,27.058824%,100%);fill-opacity:1;" d="M 55.769531 51.855469 C 54.816406 51.855469 53.859375 51.855469 52.902344 51.855469 C 52.371094 51.515625 51.847656 51.132812 51.324219 50.707031 C 50.160156 48.148438 49.777344 45.464844 50.179688 42.664062 C 50.550781 40.230469 51.933594 38.984375 54.335938 38.929688 C 56.644531 38.769531 58.03125 39.820312 58.496094 42.089844 C 58.742188 44.5 58.648438 46.894531 58.207031 49.269531 C 57.722656 50.472656 56.910156 51.335938 55.769531 51.855469 Z M 55.769531 51.855469 "/>
<path style=" stroke:none;fill-rule:evenodd;fill:rgb(8.235294%,27.45098%,100%);fill-opacity:1;" d="M 65.804688 51.855469 C 64.851562 51.855469 63.894531 51.855469 62.9375 51.855469 C 62.40625 51.515625 61.882812 51.132812 61.363281 50.707031 C 60.183594 48.25 59.800781 45.664062 60.214844 42.949219 C 60.34375 41.492188 60.964844 40.296875 62.078125 39.359375 C 65.558594 38.011719 67.707031 39.113281 68.53125 42.664062 C 68.761719 44.882812 68.667969 47.085938 68.242188 49.269531 C 67.757812 50.472656 66.949219 51.335938 65.804688 51.855469 Z M 65.804688 51.855469 "/>
<path style=" stroke:none;fill-rule:evenodd;fill:rgb(3.137255%,25.882353%,100%);fill-opacity:1;" d="M 44.585938 39.214844 C 45.542969 39.214844 46.5 39.214844 47.457031 39.214844 C 47.363281 41.757812 47.457031 44.246094 47.742188 46.683594 C 48.125 46.683594 48.507812 46.683594 48.890625 46.683594 C 48.890625 47.355469 48.890625 48.027344 48.890625 48.695312 C 48.410156 48.695312 47.933594 48.695312 47.457031 48.695312 C 47.457031 49.652344 47.457031 50.613281 47.457031 51.570312 C 46.691406 51.570312 45.925781 51.570312 45.160156 51.570312 C 45.160156 50.613281 45.160156 49.652344 45.160156 48.695312 C 43.441406 48.695312 41.71875 48.695312 40 48.695312 C 39.953125 47.925781 40 47.15625 40.144531 46.398438 C 41.628906 43.996094 43.109375 41.601562 44.585938 39.214844 Z M 44.585938 39.214844 "/>
<path style=" stroke:none;fill-rule:evenodd;fill:rgb(67.843137%,73.333333%,100%);fill-opacity:1;" d="M 44.585938 39.214844 C 45.582031 38.933594 46.632812 38.835938 47.742188 38.929688 C 47.742188 41.515625 47.742188 44.097656 47.742188 46.683594 C 47.457031 44.246094 47.363281 41.757812 47.457031 39.214844 C 46.5 39.214844 45.542969 39.214844 44.585938 39.214844 Z M 44.585938 39.214844 "/>
<path style=" stroke:none;fill-rule:evenodd;fill:rgb(96.078431%,96.470588%,100%);fill-opacity:1;" d="M 53.476562 40.9375 C 55.078125 40.675781 55.984375 41.347656 56.199219 42.949219 C 56.511719 45.179688 56.269531 47.332031 55.484375 49.414062 C 54.199219 50.15625 53.289062 49.820312 52.761719 48.410156 C 52.570312 46.398438 52.570312 44.386719 52.761719 42.375 C 52.863281 41.816406 53.105469 41.335938 53.476562 40.9375 Z M 53.476562 40.9375 "/>
<path style=" stroke:none;fill-rule:evenodd;fill:rgb(98.039216%,98.039216%,100%);fill-opacity:1;" d="M 63.511719 40.9375 C 64.65625 40.683594 65.46875 41.066406 65.949219 42.089844 C 66.140625 44.195312 66.140625 46.300781 65.949219 48.410156 C 64.898438 50.324219 63.847656 50.324219 62.796875 48.410156 C 62.605469 46.300781 62.605469 44.195312 62.796875 42.089844 C 62.984375 41.660156 63.226562 41.277344 63.511719 40.9375 Z M 63.511719 40.9375 "/>
<path style=" stroke:none;fill-rule:evenodd;fill:rgb(94.509804%,95.294118%,100%);fill-opacity:1;" d="M 15.914062 41.800781 C 16.8125 43.253906 17.386719 44.882812 17.632812 46.683594 C 16.566406 46.777344 15.515625 46.683594 14.480469 46.398438 C 15.074219 44.898438 15.554688 43.363281 15.914062 41.800781 Z M 15.914062 41.800781 "/>
<path style=" stroke:none;fill-rule:evenodd;fill:rgb(94.509804%,95.294118%,100%);fill-opacity:1;" d="M 44.875 41.515625 C 45.160156 43.183594 45.253906 44.90625 45.160156 46.683594 C 44.09375 46.777344 43.042969 46.683594 42.007812 46.398438 C 43.042969 44.800781 43.996094 43.171875 44.875 41.515625 Z M 44.875 41.515625 "/>
</g>
</svg>
