<?xml version="1.0" encoding="UTF-8"?>
<svg xmlns="http://www.w3.org/2000/svg" xmlns:xlink="http://www.w3.org/1999/xlink" width="500px" height="325px" viewBox="0 0 500 325" version="1.1">
<g id="surface1">
<path style=" stroke:none;fill-rule:evenodd;fill:rgb(0%,26.27451%,100%);fill-opacity:1;" d="M -0.902344 -0.902344 C 31.371094 -0.902344 63.625 -0.902344 95.875 -0.902344 C 95.875 3.882812 95.875 8.667969 95.875 13.476562 C 63.625 13.476562 31.371094 13.476562 -0.902344 13.476562 C -0.902344 8.667969 -0.902344 3.882812 -0.902344 -0.902344 Z M -0.902344 -0.902344 "/>
<path style=" stroke:none;fill-rule:evenodd;fill:rgb(98.823529%,98.823529%,100%);fill-opacity:1;" d="M 95.875 -0.902344 C 100.046875 -0.902344 104.25 -0.902344 108.421875 -0.902344 C 108.421875 3.882812 108.421875 8.667969 108.421875 13.476562 C 155.03125 13.769531 201.609375 13.476562 248.21875 12.574219 C 240.0625 6.101562 231.101562 1.609375 221.335938 -0.902344 C 239.84375 -0.902344 258.375 -0.902344 276.878906 -0.902344 C 276.878906 3.882812 276.878906 8.667969 276.878906 13.476562 C 304.394531 14.0625 331.859375 13.476562 359.328125 11.671875 C 357.859375 7.273438 356.078125 3.101562 353.929688 -0.902344 C 376.050781 -0.902344 398.144531 -0.902344 420.238281 -0.902344 C 419.800781 3.46875 418.601562 7.664062 416.675781 11.671875 C 444.117188 13.476562 471.605469 14.0625 499.097656 13.476562 C 499.097656 17.652344 499.097656 21.851562 499.097656 26.023438 C 469.824219 25.734375 440.550781 26.023438 411.28125 26.929688 C 408.835938 31.054688 407.640625 35.546875 407.714844 40.40625 C 438.183594 40.40625 468.628906 40.40625 499.097656 40.40625 C 499.097656 80.492188 499.097656 120.605469 499.097656 160.695312 C 476.390625 160.695312 453.710938 160.695312 431.007812 160.695312 C 431.007812 165.503906 431.007812 170.289062 431.007812 175.074219 C 453.710938 175.074219 476.390625 175.074219 499.097656 175.074219 C 499.097656 179.25 499.097656 183.445312 499.097656 187.648438 C 476.390625 187.648438 453.710938 187.648438 431.007812 187.648438 C 431.007812 192.429688 431.007812 197.21875 431.007812 202 C 453.710938 202 476.390625 202 499.097656 202 C 499.097656 242.699219 499.097656 283.398438 499.097656 324.097656 C 469.824219 324.097656 440.550781 324.097656 411.28125 324.097656 C 418.433594 320.851562 423.484375 315.453125 426.515625 307.933594 C 429.175781 294.289062 429.761719 280.515625 428.320312 266.648438 C 423.167969 244.457031 409.742188 237.574219 387.988281 245.996094 C 381.03125 251.855469 377.148438 259.328125 376.34375 268.433594 C 373.753906 285.398438 376.148438 301.5625 383.519531 316.917969 C 386.765625 319.578125 390.039062 321.972656 393.359375 324.097656 C 378.441406 324.097656 363.5 324.097656 348.558594 324.097656 C 355.6875 320.851562 360.765625 315.453125 363.792969 307.933594 C 366.554688 293.089844 367.140625 278.125 365.601562 263.0625 C 362.695312 248.875 354.027344 242.308594 339.601562 243.3125 C 324.585938 243.652344 315.941406 251.441406 313.625 266.648438 C 311.109375 284.15625 313.5 300.929688 320.777344 316.917969 C 324.046875 319.578125 327.320312 321.972656 330.640625 324.097656 C 281.054688 324.097656 231.492188 324.097656 181.910156 324.097656 C 203.003906 318.1875 209.277344 305.003906 200.707031 284.59375 C 199.097656 282.445312 196.996094 280.957031 194.433594 280.101562 C 182.46875 276.515625 170.507812 272.925781 158.59375 269.335938 C 153.636719 264.015625 154.25 259.226562 160.398438 254.980469 C 172.070312 250.097656 181.03125 253.078125 187.28125 263.941406 C 192.015625 264.84375 196.800781 265.136719 201.609375 264.84375 C 201.660156 254.394531 196.875 246.898438 187.28125 242.40625 C 173.4375 237.84375 160.304688 239.039062 147.851562 245.996094 C 140.234375 255.46875 138.71875 265.941406 143.359375 277.417969 C 146.460938 281.226562 150.367188 283.910156 155.03125 285.5 C 166.578125 287.28125 177.636719 290.550781 188.183594 295.359375 C 189.183594 306.617188 183.8125 311.402344 172.046875 309.742188 C 162.5 310.644531 156.835938 306.445312 155.03125 297.167969 C 149.632812 297.167969 144.261719 297.167969 138.890625 297.167969 C 139.695312 311.402344 146.875 320.386719 160.398438 324.097656 C 106.640625 324.097656 52.855469 324.097656 -0.902344 324.097656 C -0.902344 283.398438 -0.902344 242.699219 -0.902344 202 C 31.371094 202 63.625 202 95.875 202 C 95.875 197.21875 95.875 192.429688 95.875 187.648438 C 63.625 187.648438 31.371094 187.648438 -0.902344 187.648438 C -0.902344 183.445312 -0.902344 179.25 -0.902344 175.074219 C 31.371094 175.074219 63.625 175.074219 95.875 175.074219 C 95.875 170.289062 95.875 165.503906 95.875 160.695312 C 63.625 160.695312 31.371094 160.695312 -0.902344 160.695312 C -0.902344 120.605469 -0.902344 80.492188 -0.902344 40.40625 C 31.371094 40.40625 63.625 40.40625 95.875 40.40625 C 95.875 35.621094 95.875 30.835938 95.875 26.023438 C 63.625 26.023438 31.371094 26.023438 -0.902344 26.023438 C -0.902344 21.851562 -0.902344 17.652344 -0.902344 13.476562 C 31.371094 13.476562 63.625 13.476562 95.875 13.476562 C 95.875 8.667969 95.875 3.882812 95.875 -0.902344 Z M 95.875 -0.902344 "/>
<path style=" stroke:none;fill-rule:evenodd;fill:rgb(4.705882%,27.058824%,100%);fill-opacity:1;" d="M 108.421875 -0.902344 C 146.070312 -0.902344 183.691406 -0.902344 221.335938 -0.902344 C 231.101562 1.609375 240.0625 6.101562 248.21875 12.574219 C 201.609375 13.476562 155.03125 13.769531 108.421875 13.476562 C 108.421875 8.667969 108.421875 3.882812 108.421875 -0.902344 Z M 108.421875 -0.902344 "/>
<path style=" stroke:none;fill-rule:evenodd;fill:rgb(3.529412%,26.666667%,100%);fill-opacity:1;" d="M 276.878906 -0.902344 C 302.5625 -0.902344 328.246094 -0.902344 353.929688 -0.902344 C 356.078125 3.101562 357.859375 7.273438 359.328125 11.671875 C 331.859375 13.476562 304.394531 14.0625 276.878906 13.476562 C 276.878906 8.667969 276.878906 3.882812 276.878906 -0.902344 Z M 276.878906 -0.902344 "/>
<path style=" stroke:none;fill-rule:evenodd;fill:rgb(0.392157%,26.27451%,100%);fill-opacity:1;" d="M 420.238281 -0.902344 C 446.53125 -0.902344 472.828125 -0.902344 499.097656 -0.902344 C 499.097656 3.882812 499.097656 8.667969 499.097656 13.476562 C 471.605469 14.0625 444.117188 13.476562 416.675781 11.671875 C 418.601562 7.664062 419.800781 3.46875 420.238281 -0.902344 Z M 420.238281 -0.902344 "/>
<path style=" stroke:none;fill-rule:evenodd;fill:rgb(0.784314%,27.058824%,100%);fill-opacity:1;" d="M -0.902344 26.023438 C 31.371094 26.023438 63.625 26.023438 95.875 26.023438 C 95.875 30.835938 95.875 35.621094 95.875 40.40625 C 63.625 40.40625 31.371094 40.40625 -0.902344 40.40625 C -0.902344 35.621094 -0.902344 30.835938 -0.902344 26.023438 Z M -0.902344 26.023438 "/>
<path style=" stroke:none;fill-rule:evenodd;fill:rgb(4.313725%,27.45098%,100%);fill-opacity:1;" d="M 108.421875 26.023438 C 159.203125 25.4375 209.984375 26.023438 260.742188 27.832031 C 262.671875 31.835938 263.867188 36.035156 264.332031 40.40625 C 212.351562 40.40625 160.398438 40.40625 108.421875 40.40625 C 108.421875 35.621094 108.421875 30.835938 108.421875 26.023438 Z M 108.421875 26.023438 "/>
<path style=" stroke:none;fill-rule:evenodd;fill:rgb(2.745098%,27.058824%,100%);fill-opacity:1;" d="M 276.878906 26.023438 C 306.152344 26.023438 335.425781 26.023438 364.695312 26.023438 C 365.894531 30.835938 367.089844 35.621094 368.285156 40.40625 C 337.816406 40.40625 307.347656 40.40625 276.878906 40.40625 C 276.878906 35.621094 276.878906 30.835938 276.878906 26.023438 Z M 276.878906 26.023438 "/>
<path style=" stroke:none;fill-rule:evenodd;fill:rgb(2.745098%,27.45098%,100%);fill-opacity:1;" d="M 499.097656 26.023438 C 499.097656 30.835938 499.097656 35.621094 499.097656 40.40625 C 468.628906 40.40625 438.183594 40.40625 407.714844 40.40625 C 407.640625 35.546875 408.835938 31.054688 411.28125 26.929688 C 440.550781 26.023438 469.824219 25.734375 499.097656 26.023438 Z M 499.097656 26.023438 "/>
<path style=" stroke:none;fill-rule:evenodd;fill:rgb(27.058824%,40%,100%);fill-opacity:1;" d="M 402.320312 54.761719 C 425.316406 52.976562 448.609375 52.367188 472.21875 52.976562 C 472.777344 58.15625 472.167969 62.9375 470.433594 67.335938 C 470.433594 63.132812 470.433594 58.960938 470.433594 54.761719 C 447.730469 54.761719 425.023438 54.761719 402.320312 54.761719 Z M 402.320312 54.761719 "/>
<path style=" stroke:none;fill-rule:evenodd;fill:rgb(7.843137%,27.45098%,100%);fill-opacity:1;" d="M 25.976562 52.976562 C 39.722656 52.976562 53.46875 52.976562 67.210938 52.976562 C 67.210938 57.765625 67.210938 62.546875 67.210938 67.335938 C 53.46875 67.335938 39.722656 67.335938 25.976562 67.335938 C 25.976562 62.546875 25.976562 57.765625 25.976562 52.976562 Z M 25.976562 52.976562 "/>
<path style=" stroke:none;fill-rule:evenodd;fill:rgb(5.882353%,27.058824%,100%);fill-opacity:1;" d="M 137.085938 52.976562 C 150.828125 52.976562 164.574219 52.976562 178.320312 52.976562 C 178.320312 57.765625 178.320312 62.546875 178.320312 67.335938 C 164.574219 67.335938 150.828125 67.335938 137.085938 67.335938 C 137.085938 62.546875 137.085938 57.765625 137.085938 52.976562 Z M 137.085938 52.976562 "/>
<path style=" stroke:none;fill-rule:evenodd;fill:rgb(6.666667%,27.058824%,100%);fill-opacity:1;" d="M 221.335938 52.976562 C 235.667969 52.976562 250 52.976562 264.332031 52.976562 C 264.332031 57.765625 264.332031 62.546875 264.332031 67.335938 C 250 67.335938 235.667969 67.335938 221.335938 67.335938 C 221.335938 62.546875 221.335938 57.765625 221.335938 52.976562 Z M 221.335938 52.976562 "/>
<path style=" stroke:none;fill-rule:evenodd;fill:rgb(7.058824%,27.058824%,100%);fill-opacity:1;" d="M 305.566406 52.976562 C 328.273438 52.660156 350.953125 52.976562 373.65625 53.859375 C 376.097656 58.007812 377.296875 62.5 377.246094 67.335938 C 353.34375 67.335938 329.445312 67.335938 305.566406 67.335938 C 305.566406 62.546875 305.566406 57.765625 305.566406 52.976562 Z M 305.566406 52.976562 "/>
<path style=" stroke:none;fill-rule:evenodd;fill:rgb(0.784314%,25.490196%,100%);fill-opacity:1;" d="M 402.320312 54.761719 C 425.023438 54.761719 447.730469 54.761719 470.433594 54.761719 C 470.433594 58.960938 470.433594 63.132812 470.433594 67.335938 C 445.921875 67.625 421.4375 67.335938 396.949219 66.429688 C 398.609375 62.328125 400.390625 58.421875 402.320312 54.761719 Z M 402.320312 54.761719 "/>
<path style=" stroke:none;fill-rule:evenodd;fill:rgb(3.137255%,27.058824%,100%);fill-opacity:1;" d="M 25.976562 79.90625 C 39.722656 79.90625 53.46875 79.90625 67.210938 79.90625 C 67.210938 84.691406 67.210938 89.476562 67.210938 94.261719 C 53.46875 94.261719 39.722656 94.261719 25.976562 94.261719 C 25.976562 89.476562 25.976562 84.691406 25.976562 79.90625 Z M 25.976562 79.90625 "/>
<path style=" stroke:none;fill-rule:evenodd;fill:rgb(3.137255%,27.058824%,100%);fill-opacity:1;" d="M 137.085938 79.90625 C 176.539062 79.296875 215.96875 79.90625 255.371094 81.6875 C 253.050781 86.085938 250.046875 89.964844 246.410156 93.359375 C 209.984375 94.261719 173.535156 94.554688 137.085938 94.261719 C 137.085938 89.476562 137.085938 84.691406 137.085938 79.90625 Z M 137.085938 79.90625 "/>
<path style=" stroke:none;fill-rule:evenodd;fill:rgb(6.27451%,27.45098%,100%);fill-opacity:1;" d="M 305.566406 79.90625 C 331.25 79.613281 356.933594 79.90625 382.617188 80.8125 C 386.890625 94.140625 389.890625 93.824219 391.578125 79.90625 C 418.457031 79.90625 445.335938 79.90625 472.21875 79.90625 C 472.21875 84.691406 472.21875 89.476562 472.21875 94.261719 C 458.472656 94.261719 444.75 94.261719 431.007812 94.261719 C 430.835938 82.59375 429.640625 82.59375 427.417969 94.261719 C 401.125 94.261719 374.851562 94.261719 348.558594 94.261719 C 346.558594 82.664062 345.359375 82.664062 344.96875 94.261719 C 331.835938 94.261719 318.703125 94.261719 305.566406 94.261719 C 305.566406 89.476562 305.566406 84.691406 305.566406 79.90625 Z M 305.566406 79.90625 "/>
<path style=" stroke:none;fill-rule:evenodd;fill:rgb(2.352941%,26.27451%,100%);fill-opacity:1;" d="M 25.976562 106.835938 C 39.722656 106.835938 53.46875 106.835938 67.210938 106.835938 C 67.210938 111.621094 67.210938 116.40625 67.210938 121.191406 C 53.46875 121.191406 39.722656 121.191406 25.976562 121.191406 C 25.976562 116.40625 25.976562 111.621094 25.976562 106.835938 Z M 25.976562 106.835938 "/>
<path style=" stroke:none;fill-rule:evenodd;fill:rgb(1.176471%,26.27451%,100%);fill-opacity:1;" d="M 137.085938 106.835938 C 173.535156 106.542969 209.984375 106.835938 246.410156 107.738281 C 250.660156 111.402344 254.25 115.578125 257.179688 120.3125 C 217.140625 121.191406 177.125 121.507812 137.085938 121.191406 C 137.085938 116.40625 137.085938 111.621094 137.085938 106.835938 Z M 137.085938 106.835938 "/>
<path style=" stroke:none;fill-rule:evenodd;fill:rgb(0%,25.490196%,100%);fill-opacity:1;" d="M 305.566406 106.835938 C 318.703125 106.835938 331.835938 106.835938 344.96875 106.835938 C 344.96875 111.621094 344.96875 116.40625 344.96875 121.191406 C 331.835938 121.191406 318.703125 121.191406 305.566406 121.191406 C 305.566406 116.40625 305.566406 111.621094 305.566406 106.835938 Z M 305.566406 106.835938 "/>
<path style=" stroke:none;fill-rule:evenodd;fill:rgb(0.392157%,25.882353%,100%);fill-opacity:1;" d="M 353.929688 108.640625 C 376.34375 106.542969 399.023438 106.25 422.046875 107.738281 C 420.238281 111.914062 418.457031 116.113281 416.675781 120.3125 C 397.535156 121.800781 378.417969 121.507812 359.328125 119.410156 C 357.496094 115.625 355.710938 112.035156 353.929688 108.640625 Z M 353.929688 108.640625 "/>
<path style=" stroke:none;fill-rule:evenodd;fill:rgb(9.019608%,27.058824%,100%);fill-opacity:1;" d="M 431.007812 106.835938 C 444.75 106.835938 458.472656 106.835938 472.21875 106.835938 C 472.21875 111.621094 472.21875 116.40625 472.21875 121.191406 C 458.472656 121.191406 444.75 121.191406 431.007812 121.191406 C 431.007812 116.40625 431.007812 111.621094 431.007812 106.835938 Z M 431.007812 106.835938 "/>
<path style=" stroke:none;fill-rule:evenodd;fill:rgb(4.313725%,26.666667%,100%);fill-opacity:1;" d="M 25.976562 133.765625 C 39.722656 133.765625 53.46875 133.765625 67.210938 133.765625 C 67.210938 138.550781 67.210938 143.335938 67.210938 148.144531 C 53.46875 148.144531 39.722656 148.144531 25.976562 148.144531 C 25.976562 143.335938 25.976562 138.550781 25.976562 133.765625 Z M 25.976562 133.765625 "/>
<path style=" stroke:none;fill-rule:evenodd;fill:rgb(5.490196%,27.058824%,100%);fill-opacity:1;" d="M 137.085938 133.765625 C 151.441406 133.765625 165.773438 133.765625 180.101562 133.765625 C 180.101562 138.550781 180.101562 143.335938 180.101562 148.144531 C 165.773438 148.144531 151.441406 148.144531 137.085938 148.144531 C 137.085938 143.335938 137.085938 138.550781 137.085938 133.765625 Z M 137.085938 133.765625 "/>
<path style=" stroke:none;fill-rule:evenodd;fill:rgb(5.098039%,27.058824%,100%);fill-opacity:1;" d="M 221.335938 133.765625 C 235.71875 133.179688 250.046875 133.765625 264.332031 135.570312 C 265.894531 139.601562 266.503906 143.796875 266.136719 148.144531 C 251.195312 148.144531 236.253906 148.144531 221.335938 148.144531 C 221.335938 143.335938 221.335938 138.550781 221.335938 133.765625 Z M 221.335938 133.765625 "/>
<path style=" stroke:none;fill-rule:evenodd;fill:rgb(1.960784%,26.27451%,100%);fill-opacity:1;" d="M 305.566406 133.765625 C 318.703125 133.765625 331.835938 133.765625 344.96875 133.765625 C 344.96875 138.550781 344.96875 143.335938 344.96875 148.144531 C 331.835938 148.144531 318.703125 148.144531 305.566406 148.144531 C 305.566406 143.335938 305.566406 138.550781 305.566406 133.765625 Z M 305.566406 133.765625 "/>
<path style=" stroke:none;fill-rule:evenodd;fill:rgb(3.529412%,26.27451%,100%);fill-opacity:1;" d="M 364.695312 133.765625 C 380.835938 133.472656 396.972656 133.765625 413.085938 134.667969 C 410.765625 138.304688 408.984375 142.1875 407.714844 146.335938 C 394.554688 148.730469 381.421875 148.730469 368.285156 146.335938 C 366.359375 142.335938 365.160156 138.132812 364.695312 133.765625 Z M 364.695312 133.765625 "/>
<path style=" stroke:none;fill-rule:evenodd;fill:rgb(8.235294%,27.058824%,100%);fill-opacity:1;" d="M 431.007812 133.765625 C 444.75 133.765625 458.472656 133.765625 472.21875 133.765625 C 472.21875 138.550781 472.21875 143.335938 472.21875 148.144531 C 458.472656 148.144531 444.75 148.144531 431.007812 148.144531 C 431.007812 143.335938 431.007812 138.550781 431.007812 133.765625 Z M 431.007812 133.765625 "/>
<path style=" stroke:none;fill-rule:evenodd;fill:rgb(14.509804%,29.019608%,100%);fill-opacity:1;" d="M -0.902344 160.695312 C 31.371094 160.695312 63.625 160.695312 95.875 160.695312 C 95.875 165.503906 95.875 170.289062 95.875 175.074219 C 63.625 175.074219 31.371094 175.074219 -0.902344 175.074219 C -0.902344 170.289062 -0.902344 165.503906 -0.902344 160.695312 Z M -0.902344 160.695312 "/>
<path style=" stroke:none;fill-rule:evenodd;fill:rgb(0%,25.490196%,100%);fill-opacity:1;" d="M 110.203125 160.695312 C 161.597656 160.109375 212.988281 160.695312 264.332031 162.5 C 263.207031 166.601562 261.402344 170.191406 258.960938 173.265625 C 209.375 173.265625 159.789062 173.265625 110.203125 173.265625 C 110.203125 169.09375 110.203125 164.890625 110.203125 160.695312 Z M 110.203125 160.695312 "/>
<path style=" stroke:none;fill-rule:evenodd;fill:rgb(14.117647%,28.235294%,100%);fill-opacity:1;" d="M 373.65625 160.695312 C 383.277344 160.109375 392.847656 160.71875 402.320312 162.5 C 400.390625 166.503906 399.195312 170.703125 398.753906 175.074219 C 391.578125 175.074219 384.398438 175.074219 377.246094 175.074219 C 376.414062 170.191406 375.21875 165.40625 373.65625 160.695312 Z M 373.65625 160.695312 "/>
<path style=" stroke:none;fill-rule:evenodd;fill:rgb(14.509804%,29.019608%,100%);fill-opacity:1;" d="M 499.097656 160.695312 C 499.097656 165.503906 499.097656 170.289062 499.097656 175.074219 C 476.390625 175.074219 453.710938 175.074219 431.007812 175.074219 C 431.007812 170.289062 431.007812 165.503906 431.007812 160.695312 C 453.710938 160.695312 476.390625 160.695312 499.097656 160.695312 Z M 499.097656 160.695312 "/>
<path style=" stroke:none;fill-rule:evenodd;fill:rgb(45.098039%,54.901961%,100%);fill-opacity:1;" d="M 110.203125 160.695312 C 110.203125 164.890625 110.203125 169.09375 110.203125 173.265625 C 159.789062 173.265625 209.375 173.265625 258.960938 173.265625 C 209.082031 175.074219 158.910156 175.660156 108.421875 175.074219 C 107.886719 169.898438 108.472656 165.085938 110.203125 160.695312 Z M 110.203125 160.695312 "/>
<path style=" stroke:none;fill-rule:evenodd;fill:rgb(47.058824%,55.686275%,100%);fill-opacity:1;" d="M 278.664062 160.695312 C 278.664062 164.890625 278.664062 169.09375 278.664062 173.265625 C 300.78125 173.265625 322.875 173.265625 344.96875 173.265625 C 344.96875 169.09375 344.96875 164.890625 344.96875 160.695312 C 346.726562 165.085938 347.3125 169.898438 346.777344 175.074219 C 323.484375 175.074219 300.171875 175.074219 276.878906 175.074219 C 276.34375 169.898438 276.929688 165.085938 278.664062 160.695312 Z M 278.664062 160.695312 "/>
<path style=" stroke:none;fill-rule:evenodd;fill:rgb(0%,25.490196%,100%);fill-opacity:1;" d="M 278.664062 160.695312 C 300.78125 160.695312 322.875 160.695312 344.96875 160.695312 C 344.96875 164.890625 344.96875 169.09375 344.96875 173.265625 C 322.875 173.265625 300.78125 173.265625 278.664062 173.265625 C 278.664062 169.09375 278.664062 164.890625 278.664062 160.695312 Z M 278.664062 160.695312 "/>
<path style=" stroke:none;fill-rule:evenodd;fill:rgb(81.568627%,83.921569%,100%);fill-opacity:1;" d="M 108.421875 187.648438 C 155.320312 185.253906 202.515625 185.253906 250 187.648438 C 249.78125 188.71875 249.171875 189.332031 248.21875 189.429688 C 202.515625 187.648438 156.519531 187.035156 110.203125 187.648438 C 109.617188 187.648438 109.007812 187.648438 108.421875 187.648438 Z M 108.421875 187.648438 "/>
<path style=" stroke:none;fill-rule:evenodd;fill:rgb(12.156863%,28.235294%,100%);fill-opacity:1;" d="M -0.902344 187.648438 C 31.371094 187.648438 63.625 187.648438 95.875 187.648438 C 95.875 192.429688 95.875 197.21875 95.875 202 C 63.625 202 31.371094 202 -0.902344 202 C -0.902344 197.21875 -0.902344 192.429688 -0.902344 187.648438 Z M -0.902344 187.648438 "/>
<path style=" stroke:none;fill-rule:evenodd;fill:rgb(0.784314%,25.490196%,100%);fill-opacity:1;" d="M 110.203125 187.648438 C 156.519531 187.035156 202.515625 187.648438 248.21875 189.429688 C 239.820312 196.019531 230.273438 199.609375 219.53125 200.195312 C 183.105469 200.195312 146.65625 200.195312 110.203125 200.195312 C 110.203125 196.019531 110.203125 191.820312 110.203125 187.648438 Z M 110.203125 187.648438 "/>
<path style=" stroke:none;fill-rule:evenodd;fill:rgb(0%,25.490196%,100%);fill-opacity:1;" d="M 278.664062 187.648438 C 300.78125 187.648438 322.875 187.648438 344.96875 187.648438 C 344.96875 191.820312 344.96875 196.019531 344.96875 200.195312 C 322.875 200.195312 300.78125 200.195312 278.664062 200.195312 C 278.664062 196.019531 278.664062 191.820312 278.664062 187.648438 Z M 278.664062 187.648438 "/>
<path style=" stroke:none;fill-rule:evenodd;fill:rgb(7.45098%,25.490196%,100%);fill-opacity:1;" d="M 382.617188 189.429688 C 385.960938 187.109375 389.550781 187.109375 393.359375 189.429688 C 392.261719 193.40625 390.453125 196.996094 387.988281 200.195312 C 386.15625 196.4375 384.375 192.847656 382.617188 189.429688 Z M 382.617188 189.429688 "/>
<path style=" stroke:none;fill-rule:evenodd;fill:rgb(12.156863%,28.235294%,100%);fill-opacity:1;" d="M 499.097656 187.648438 C 499.097656 192.429688 499.097656 197.21875 499.097656 202 C 476.390625 202 453.710938 202 431.007812 202 C 431.007812 197.21875 431.007812 192.429688 431.007812 187.648438 C 453.710938 187.648438 476.390625 187.648438 499.097656 187.648438 Z M 499.097656 187.648438 "/>
<path style=" stroke:none;fill-rule:evenodd;fill:rgb(39.607843%,50.588235%,100%);fill-opacity:1;" d="M 108.421875 187.648438 C 109.007812 187.648438 109.617188 187.648438 110.203125 187.648438 C 110.203125 191.820312 110.203125 196.019531 110.203125 200.195312 C 146.65625 200.195312 183.105469 200.195312 219.53125 200.195312 C 182.8125 202 145.777344 202.585938 108.421875 202 C 108.421875 197.21875 108.421875 192.429688 108.421875 187.648438 Z M 108.421875 187.648438 "/>
<path style=" stroke:none;fill-rule:evenodd;fill:rgb(36.862745%,49.019608%,100%);fill-opacity:1;" d="M 278.664062 187.648438 C 278.664062 191.820312 278.664062 196.019531 278.664062 200.195312 C 300.78125 200.195312 322.875 200.195312 344.96875 200.195312 C 322.609375 202 299.902344 202.585938 276.878906 202 C 276.34375 196.828125 276.929688 192.039062 278.664062 187.648438 Z M 278.664062 187.648438 "/>
<path style=" stroke:none;fill-rule:evenodd;fill:rgb(7.45098%,27.058824%,100%);fill-opacity:1;" d="M 181.910156 324.097656 C 174.730469 324.097656 167.554688 324.097656 160.398438 324.097656 C 146.875 320.386719 139.695312 311.402344 138.890625 297.167969 C 144.261719 297.167969 149.632812 297.167969 155.03125 297.167969 C 156.835938 306.445312 162.5 310.644531 172.046875 309.742188 C 183.8125 311.402344 189.183594 306.617188 188.183594 295.359375 C 177.636719 290.550781 166.578125 287.28125 155.03125 285.5 C 150.367188 283.910156 146.460938 281.226562 143.359375 277.417969 C 138.71875 265.941406 140.234375 255.46875 147.851562 245.996094 C 160.304688 239.039062 173.4375 237.84375 187.28125 242.40625 C 196.875 246.898438 201.660156 254.394531 201.609375 264.84375 C 196.800781 265.136719 192.015625 264.84375 187.28125 263.941406 C 181.03125 253.078125 172.070312 250.097656 160.398438 254.980469 C 154.25 259.226562 153.636719 264.015625 158.59375 269.335938 C 170.507812 272.925781 182.46875 276.515625 194.433594 280.101562 C 196.996094 280.957031 199.097656 282.445312 200.707031 284.59375 C 209.277344 305.003906 203.003906 318.1875 181.910156 324.097656 Z M 181.910156 324.097656 "/>
<path style=" stroke:none;fill-rule:evenodd;fill:rgb(8.235294%,26.666667%,100%);fill-opacity:1;" d="M 241.039062 239.722656 C 245.265625 239.429688 249.4375 239.722656 253.589844 240.601562 C 242.53125 267.53125 232.375 294.75 223.121094 322.3125 C 218.945312 322.3125 214.746094 322.3125 210.570312 322.3125 C 220.019531 294.507812 230.175781 266.96875 241.039062 239.722656 Z M 241.039062 239.722656 "/>
<path style=" stroke:none;fill-rule:evenodd;fill:rgb(7.843137%,27.058824%,100%);fill-opacity:1;" d="M 90.503906 241.503906 C 97.679688 241.503906 104.835938 241.503906 112.011719 241.503906 C 120.238281 268.042969 129.199219 294.382812 138.890625 320.507812 C 132.910156 322.898438 126.953125 322.898438 120.972656 320.507812 C 119.335938 315.917969 117.554688 311.425781 115.601562 307.054688 C 105.394531 305.542969 95.238281 305.859375 85.132812 307.933594 C 82.8125 312.476562 81.617188 317.261719 81.542969 322.3125 C 75.5625 322.3125 69.605469 322.3125 63.625 322.3125 C 72.925781 295.507812 81.882812 268.578125 90.503906 241.503906 Z M 90.503906 241.503906 "/>
<path style=" stroke:none;fill-rule:evenodd;fill:rgb(7.058824%,27.058824%,100%);fill-opacity:1;" d="M 348.558594 324.097656 C 342.601562 324.097656 336.621094 324.097656 330.640625 324.097656 C 327.320312 321.972656 324.046875 319.578125 320.777344 316.917969 C 313.5 300.929688 311.109375 284.15625 313.625 266.648438 C 315.941406 251.441406 324.585938 243.652344 339.601562 243.3125 C 354.027344 242.308594 362.695312 248.875 365.601562 263.0625 C 367.140625 278.125 366.554688 293.089844 363.792969 307.933594 C 360.765625 315.453125 355.6875 320.851562 348.558594 324.097656 Z M 348.558594 324.097656 "/>
<path style=" stroke:none;fill-rule:evenodd;fill:rgb(8.235294%,27.45098%,100%);fill-opacity:1;" d="M 411.28125 324.097656 C 405.320312 324.097656 399.339844 324.097656 393.359375 324.097656 C 390.039062 321.972656 386.765625 319.578125 383.519531 316.917969 C 376.148438 301.5625 373.753906 285.398438 376.34375 268.433594 C 377.148438 259.328125 381.03125 251.855469 387.988281 245.996094 C 409.742188 237.574219 423.167969 244.457031 428.320312 266.648438 C 429.761719 280.515625 429.175781 294.289062 426.515625 307.933594 C 423.484375 315.453125 418.433594 320.851562 411.28125 324.097656 Z M 411.28125 324.097656 "/>
<path style=" stroke:none;fill-rule:evenodd;fill:rgb(3.137255%,25.882353%,100%);fill-opacity:1;" d="M 278.664062 245.09375 C 284.644531 245.09375 290.625 245.09375 296.605469 245.09375 C 296.019531 260.984375 296.605469 276.539062 298.390625 291.773438 C 300.78125 291.773438 303.171875 291.773438 305.566406 291.773438 C 305.566406 295.972656 305.566406 300.171875 305.566406 304.34375 C 302.5625 304.34375 299.585938 304.34375 296.605469 304.34375 C 296.605469 310.328125 296.605469 316.332031 296.605469 322.3125 C 291.820312 322.3125 287.035156 322.3125 282.25 322.3125 C 282.25 316.332031 282.25 310.328125 282.25 304.34375 C 271.507812 304.34375 260.742188 304.34375 250 304.34375 C 249.707031 299.535156 250 294.726562 250.902344 289.992188 C 260.179688 274.976562 269.433594 260.007812 278.664062 245.09375 Z M 278.664062 245.09375 "/>
<path style=" stroke:none;fill-rule:evenodd;fill:rgb(67.843137%,73.333333%,100%);fill-opacity:1;" d="M 278.664062 245.09375 C 284.886719 243.335938 291.453125 242.726562 298.390625 243.3125 C 298.390625 259.472656 298.390625 275.609375 298.390625 291.773438 C 296.605469 276.539062 296.019531 260.984375 296.605469 245.09375 C 290.625 245.09375 284.644531 245.09375 278.664062 245.09375 Z M 278.664062 245.09375 "/>
<path style=" stroke:none;fill-rule:evenodd;fill:rgb(96.078431%,96.470588%,100%);fill-opacity:1;" d="M 334.226562 255.859375 C 344.238281 254.222656 349.902344 258.421875 351.246094 268.433594 C 353.199219 282.375 351.683594 295.824219 346.777344 308.835938 C 338.746094 313.476562 333.054688 311.375 329.761719 302.5625 C 328.5625 289.992188 328.5625 277.417969 329.761719 264.84375 C 330.394531 261.351562 331.910156 258.351562 334.226562 255.859375 Z M 334.226562 255.859375 "/>
<path style=" stroke:none;fill-rule:evenodd;fill:rgb(98.039216%,98.039216%,100%);fill-opacity:1;" d="M 396.949219 255.859375 C 404.101562 254.273438 409.179688 256.664062 412.183594 263.0625 C 413.378906 276.21875 413.378906 289.378906 412.183594 302.5625 C 405.617188 314.527344 399.046875 314.527344 392.480469 302.5625 C 391.285156 289.378906 391.285156 276.21875 392.480469 263.0625 C 393.652344 260.375 395.164062 257.984375 396.949219 255.859375 Z M 396.949219 255.859375 "/>
<path style=" stroke:none;fill-rule:evenodd;fill:rgb(94.509804%,95.294118%,100%);fill-opacity:1;" d="M 99.460938 261.253906 C 105.078125 270.335938 108.667969 280.515625 110.203125 291.773438 C 103.539062 292.359375 96.972656 291.773438 90.503906 289.992188 C 94.214844 280.617188 97.21875 271.019531 99.460938 261.253906 Z M 99.460938 261.253906 "/>
<path style=" stroke:none;fill-rule:evenodd;fill:rgb(94.509804%,95.294118%,100%);fill-opacity:1;" d="M 280.46875 259.472656 C 282.25 269.898438 282.835938 280.664062 282.25 291.773438 C 275.585938 292.359375 269.019531 291.773438 262.546875 289.992188 C 269.019531 280.003906 274.976562 269.824219 280.46875 259.472656 Z M 280.46875 259.472656 "/>
</g>
</svg>
